<?xml version="1.0" encoding="utf-8"?>
<!-- Generator: Adobe Illustrator 25.2.0, SVG Export Plug-In . SVG Version: 6.00 Build 0)  -->
<svg version="1.1" xmlns="http://www.w3.org/2000/svg" xmlns:xlink="http://www.w3.org/1999/xlink" x="0px" y="0px"
	 viewBox="0 0 500 500" style="enable-background:new 0 0 500 500;" xml:space="preserve">
<style type="text/css">
	.st0{fill:#F5F5F5;}
	.st1{fill:#E0E0E0;}
	.st2{fill:#455A64;}
	.st3{fill:#37474F;}
	.st4{fill:#27DEBF;}
	.st5{fill:#263238;}
	.st6{opacity:0.8;fill:#FFFFFF;}
	.st7{opacity:0.15;}
	.st8{opacity:0.3;}
	.st9{opacity:0.5;}
	.st10{opacity:0.35;}
	.st11{opacity:0.23;}
	.st12{opacity:0.4;}
	.st13{opacity:0.6;fill:#FFFFFF;}
	.st14{opacity:0.3;fill:#FFFFFF;}
	.st15{opacity:0.1;}
	.st16{opacity:0.2;}
	.st17{fill:#FFFFFF;}
	.st18{opacity:0.8;clip-path:url(#XMLID_2_);fill:#FFFFFF;}
	.st19{clip-path:url(#XMLID_2_);}
	.st20{fill:#FFA8A7;}
	.st21{opacity:0.45;}
	.st22{fill:#F28F8F;}
	.st23{fill:#FAFAFA;}
	.st24{fill:#B16668;}
</style>
<g id="Floor">
	<ellipse id="Floor_4_" class="st0" cx="249.8" cy="337.5" rx="238.2" ry="137.5"/>
</g>
<g id="Shadows">
	<path id="Shadow_14_" class="st1" d="M421.5,361.9c0-0.1-0.1-0.2-0.2-0.3c0-0.1-0.1-0.1-0.1-0.2c0-0.1-0.1-0.1-0.2-0.2
		c-0.1-0.1-0.1-0.1-0.2-0.2c-0.2-0.2-0.4-0.3-0.6-0.5L197.6,232.2c-2-1.1-5.2-1.1-7.2,0L74.5,298.9c-0.2,0.1-0.3,0.2-0.4,0.3
		c-0.1,0-0.1,0.1-0.1,0.1c-0.3,0.2-0.5,0.4-0.6,0.7c0,0.1-0.1,0.1-0.1,0.2c-0.1,0.1-0.1,0.2-0.1,0.3c0,0.1,0,0.1-0.1,0.2
		c0,0.1,0,0.2,0,0.4c0,0.1,0,0.2,0,0.2c0,0.1,0,0.2,0.1,0.3c0,0.1,0.1,0.2,0.1,0.3c0.2,0.5,0.7,0.9,1.3,1.2l222.7,128.6
		c0.6,0.4,1.4,0.6,2.1,0.7c0.5,0.1,1,0.1,1.5,0.1c0.5,0,1,0,1.4-0.1c0.2,0,0.3-0.1,0.5-0.1c0.5-0.1,0.9-0.2,1.3-0.4
		c0.1-0.1,0.3-0.1,0.4-0.2l115.9-66.7C421.6,364.1,422,362.9,421.5,361.9z"/>
	<ellipse id="Shadow_10_" class="st1" cx="407.3" cy="298.9" rx="49.5" ry="28.6"/>
	<path id="Shadow_6_" class="st1" d="M146.8,447.1c-2.1,0-4.2-0.5-5.8-1.4l-99.2-57.3l-0.1-0.1c-1.9-1.2-3.1-3-3-4.9
		c0-2,1.2-3.8,3.2-5l65.4-37.8c1.6-0.9,3.6-1.4,5.8-1.4c2.1,0,4.2,0.5,5.8,1.4l99.1,57.2c2,1.2,3.2,3,3.2,5c0,1.9-1,3.6-2.9,4.8
		c-0.1,0.1-0.3,0.2-0.4,0.3l-49.5,28.6l-15.9,9.2C151,446.6,148.9,447.1,146.8,447.1C146.8,447.1,146.8,447.1,146.8,447.1z"/>
</g>
<g id="Device">
	<g id="Device_1_">
		<g id="Mobile">
			<g>
				<path id="XMLID_617_" class="st2" d="M411.9,347.2c0-0.1-0.1-0.2-0.2-0.3c0-0.1-0.1-0.1-0.1-0.2c0-0.1-0.1-0.1-0.2-0.2
					c-0.1-0.1-0.1-0.1-0.2-0.2c-0.2-0.2-0.4-0.3-0.6-0.5L194,220.9c-2-1.1-5.2-1.1-7.2,0L80.6,282.2c-0.2,0.1-0.3,0.2-0.4,0.3
					c-0.1,0-0.1,0.1-0.1,0.1c-0.3,0.2-0.5,0.4-0.6,0.7c0,0.1-0.1,0.1-0.1,0.2c-0.1,0.1-0.1,0.2-0.1,0.3c0,0.1,0,0.1-0.1,0.2
					c0,0.1,0,0.2,0,0.4c0,0.1,0,0.2,0,0.2c0,0.1,0,0.2,0.1,0.3c0,0.1,0.1,0.2,0.1,0.3c0.2,0.5,0.7,0.9,1.3,1.2l216.6,125.1
					c0.6,0.4,1.4,0.6,2.1,0.7c0.5,0.1,1,0.1,1.5,0.1c0.5,0,1,0,1.4-0.1c0.2,0,0.3-0.1,0.5-0.1c0.5-0.1,0.9-0.2,1.3-0.4
					c0.1-0.1,0.3-0.1,0.4-0.2l106.2-61.3C412,349.3,412.4,348.2,411.9,347.2z M388.5,342.8l-6.8,3.9l-90.5,52.2
					c-0.2,0.1-0.5,0.3-0.7,0.4c-1.5,0.6-3.2,0.6-4.7,0c-0.2-0.1-0.5-0.2-0.7-0.4l-171.8-99.2l-8.3-4.8c-0.3-0.2-0.6-0.4-0.8-0.6
					c-0.9-0.9-0.6-2.1,0.8-2.9l97.2-56.1c1.2-0.7,2.5-1.2,3.8-1c0.3,0,0.6,0.1,0.9,0.2c0.2,0.1,0.3,0.1,0.5,0.2l181.1,104.6
					C389.9,340,389.9,342,388.5,342.8z"/>
			</g>
			<g>
				<path id="XMLID_615_" class="st3" d="M80.2,282.5c-1.8,1.3-3.2,3.8-3.2,5.9l0,4.7c0,2.3,1.6,5.1,3.6,6.2l216.6,125.1
					c0.8,0.4,1.7,0.7,2.6,0.8c0.3,0,0.6,0.1,1,0.1c0,0,0,0,0,0l0-13.1l0,0c-0.5,0-1,0-1.5-0.1c-0.8-0.1-1.5-0.4-2.1-0.7L80.6,286.4
					C78.8,285.3,78.6,283.6,80.2,282.5z"/>
			</g>
			<path class="st4" d="M354.5,372.7c-3.5-2-9.3-2-12.8,0c-0.9,0.5-1.6,1.1-1.9,1.8c-1.2,2,1,3.5,1.9,4.1c3.5,2,9.3,2,12.8,0
				c0.9-0.5,1.5-1.1,1.9-1.8C357.6,374.7,355.4,373.2,354.5,372.7z"/>
			<g id="XMLID_608_">
				<path id="XMLID_612_" class="st5" d="M142.4,257.2c1-0.6,1-1.5,0-2c-1-0.6-2.5-0.6-3.5,0c-1,0.6-1,1.5,0,2
					C139.8,257.7,141.4,257.7,142.4,257.2z"/>
				<g>
					<path id="XMLID_610_" class="st5" d="M136.9,266.8c0.9-0.5,0.9-1.3,0-1.8c-0.9-0.5-2.3-0.5-3.1,0c-0.9,0.5-0.9,1.3,0,1.8
						S136,267.3,136.9,266.8z"/>
					<path id="XMLID_609_" class="st5" d="M142.1,263.8l17.4-10.1c1-0.6,1-1.4,0.1-1.9c-0.9-0.5-2.4-0.5-3.4,0.1l-17.4,10.1
						c-1,0.6-1,1.4-0.1,1.9C139.7,264.4,141.2,264.4,142.1,263.8z"/>
				</g>
			</g>
			<g>
				<path id="XMLID_607_" class="st5" d="M411.1,346.3c1.5,1.2,1.3,2.8-0.5,3.8l-106.2,61.3c-1,0.6-2.3,0.9-3.6,0.9l0,13.1
					c1.3,0,2.6-0.3,3.6-0.9l106.2-61.3c2-1.1,3.6-3.9,3.6-6.2l0-4.8C414.2,350.1,412.8,347.6,411.1,346.3z"/>
			</g>
			<g>
				<g>
					<path class="st2" d="M131.2,319.3c1,0.6,1.9,2,1.9,3.1c0,0.5-0.2,0.9-0.5,1.1c-0.2,0.1-1.1,0.6-1.3,0.8
						c-0.3,0.2-0.8,0.2-1.3-0.2l-24.2-13.9c-1-0.6-1.9-2-1.9-3.1c0-0.5,0.2-0.9,0.5-1.1c0.2-0.1,1.1-0.7,1.3-0.8
						c0.3-0.2,0.8-0.2,1.3,0.2L131.2,319.3z"/>
					<path class="st5" d="M129.9,320l-24.2-13.9c-1-0.6-1.9-0.2-1.9,0.9c0,1.1,0.8,2.5,1.9,3.1l24.2,13.9c1,0.6,1.9,0.2,1.9-0.9
						C131.8,322,131,320.6,129.9,320z"/>
				</g>
				<g>
					<path class="st2" d="M98.9,300.6c1,0.6,1.9,2,1.9,3.1c0,0.5-0.2,0.9-0.5,1.1c-0.2,0.1-1.1,0.6-1.3,0.8
						c-0.3,0.2-0.8,0.2-1.3-0.2l-11.4-6.6c-1-0.6-1.9-2-1.9-3.1c0-0.5,0.2-0.9,0.5-1.1c0.2-0.1,1.1-0.7,1.3-0.8
						c0.3-0.2,0.8-0.2,1.3,0.2L98.9,300.6z"/>
					<path class="st5" d="M97.6,301.4l-11.4-6.6c-1-0.6-1.9-0.2-1.9,0.9c0,1.1,0.8,2.5,1.9,3.1l11.4,6.6c1,0.6,1.9,0.2,1.9-0.9
						C99.5,303.3,98.6,301.9,97.6,301.4z"/>
				</g>
			</g>
		</g>
		<g id="Window_4_">
			<path class="st4" d="M388.5,342.7l-6.8,3.9l-90.5,52.2c-0.2,0.1-0.5,0.3-0.7,0.4c-1.5,0.6-3.2,0.6-4.7,0
				c-0.2-0.1-0.5-0.2-0.7-0.4l-171.8-99.2l-8.3-4.8c-0.3-0.2-0.6-0.4-0.8-0.6c-0.9-0.9-0.6-2.1,0.8-2.9l97.2-56.1
				c1.2-0.7,2.5-1.2,3.8-1c0.3,0,0.6,0.1,0.9,0.2c0.2,0.1,0.3,0.1,0.5,0.2l181.1,104.6C389.9,339.9,389.9,341.9,388.5,342.7z"/>
			<path class="st6" d="M388.5,342.7l-6.8,3.9l-90.5,52.2c-0.2,0.1-0.5,0.3-0.7,0.4c-1.5,0.6-3.2,0.6-4.7,0
				c-0.2-0.1-0.5-0.2-0.7-0.4l-171.8-99.2l-8.3-4.8c-0.3-0.2-0.6-0.4-0.8-0.6c-0.9-0.9-0.6-2.1,0.8-2.9l97.2-56.1
				c1.2-0.7,2.5-1.2,3.8-1c0.3,0,0.6,0.1,0.9,0.2c0.2,0.1,0.3,0.1,0.5,0.2l181.1,104.6C389.9,339.9,389.9,341.9,388.5,342.7z"/>
			<g>
				<g id="XMLID_598_">
					<path id="XMLID_603_" class="st2" d="M125.5,287.5c0,0-0.1,0-0.1,0l-0.5-0.3l-1.1,0.7c-0.1,0-0.1,0-0.2,0l-0.2-0.1
						c0,0-0.1,0-0.1-0.1c0,0,0,0,0-0.1l-0.5-1.7c0,0,0-0.1,0-0.1c0,0,0,0,0.1-0.1l0.2-0.1c0,0,0.1,0,0.1,0c0,0,0.1,0,0.1,0l1.7,1
						l0.3-0.1c0,0,0.1,0,0.1,0c0,0,0.1,0,0.1,0l0.1,0.1c0.1,0,0.1,0.1,0.1,0.1c0,0,0,0.1-0.1,0.1l-0.3,0.1l0.5,0.3
						c0.1,0,0.1,0.1,0.1,0.1c0,0,0,0.1-0.1,0.1l-0.2,0.1C125.6,287.5,125.6,287.5,125.5,287.5z M124.6,286.9l-1.2-0.7l0.4,1.2
						L124.6,286.9z"/>
					<path id="XMLID_600_" class="st2" d="M126.6,286.6c-0.5,0-1-0.2-1.4-0.4c-0.5-0.3-0.7-0.6-0.8-0.8c0-0.3,0.2-0.5,0.6-0.8
						c0.2-0.1,0.3-0.2,0.5-0.2c0.2-0.1,0.4-0.1,0.5-0.1c0,0,0.1,0,0.1,0c0,0,0,0,0,0l0.1,0.2c0,0,0,0,0,0c0,0,0,0-0.1,0
						c-0.3,0-0.5,0.1-0.7,0.2c-0.3,0.2-0.4,0.3-0.4,0.5c0,0.2,0.2,0.4,0.6,0.6c0.4,0.2,0.7,0.3,1.1,0.3c0.3,0,0.6-0.1,0.9-0.2
						c0.1-0.1,0.2-0.1,0.3-0.2c0.1-0.1,0.1-0.1,0.1-0.2l-0.8-0.4l-0.5,0.3c0,0-0.1,0-0.1,0c0,0-0.1,0-0.1,0l-0.1-0.1
						c-0.1,0-0.1-0.1-0.1-0.1c0,0,0,0,0.1-0.1l0.8-0.4c0.1,0,0.1,0,0.2,0c0.1,0,0.1,0,0.2,0.1l1.1,0.6c0,0,0.1,0,0.1,0.1
						c0,0,0,0,0,0.1c-0.1,0.2-0.3,0.4-0.7,0.7C127.5,286.5,127.1,286.6,126.6,286.6z"/>
				</g>
				<g id="XMLID_575_">
					<g id="XMLID_596_">
						<path id="XMLID_597_" class="st2" d="M136.1,280.9c0.4,0.2,0.4,0.6,0,0.8c-0.4,0.2-1,0.2-1.3,0c-0.4-0.2-0.4-0.6,0-0.8
							C135.2,280.6,135.8,280.6,136.1,280.9z"/>
					</g>
					<g id="XMLID_580_">
						<g id="XMLID_593_">
							<path id="XMLID_594_" class="st2" d="M133.7,280.2c-0.7,0.4-0.9,0.9-0.6,1.4c0.1,0.1,0.2,0.2,0.4,0.1l0,0
								c0.2,0,0.4-0.1,0.3-0.3c-0.2-0.3,0-0.7,0.4-1c0.5-0.3,1.2-0.4,1.8-0.3c0.2,0,0.4,0,0.5-0.2l0,0c0-0.1-0.1-0.2-0.3-0.2
								C135.3,279.7,134.4,279.8,133.7,280.2z"/>
						</g>
					</g>
					<g id="XMLID_576_">
						<g id="XMLID_577_">
							<path id="XMLID_578_" class="st2" d="M132.6,279.6c-1,0.6-1.4,1.4-1.1,2.1c0,0.1,0.2,0.2,0.4,0.2l0,0c0.2,0,0.4-0.1,0.3-0.3
								c-0.2-0.6,0.1-1.3,0.9-1.7c0.8-0.5,2-0.6,3-0.5c0.2,0,0.4-0.1,0.5-0.2l0,0c0-0.1-0.1-0.2-0.3-0.2
								C135,278.8,133.6,279,132.6,279.6z"/>
						</g>
					</g>
				</g>
				<g>
					<path class="st2" d="M152.3,270.1c0,0-0.1,0-0.1,0c0,0,0,0,0-0.1l0.2-1c0,0,0,0,0-0.1c0,0,0,0,0.1-0.1l0.3-0.2c0,0,0.1,0,0.1,0
						c0,0,0.1,0,0.1,0l2.9,1.6c0,0,0,0,0,0.1c0,0,0,0.1,0,0.1l-0.4,0.2c0,0-0.1,0-0.1,0c0,0-0.1,0-0.1,0l-2.2-1.3L153,270
						c0,0,0,0-0.1,0.1c0,0-0.1,0-0.1,0L152.3,270.1z"/>
					<path class="st2" d="M154.5,268.8c0,0-0.1,0-0.1,0c0,0,0,0,0-0.1l0.2-1c0,0,0,0,0-0.1c0,0,0,0,0.1-0.1l0.3-0.2c0,0,0.1,0,0.1,0
						c0,0,0.1,0,0.1,0l2.9,1.6c0,0,0,0,0,0.1c0,0,0,0.1,0,0.1l-0.4,0.2c0,0-0.1,0-0.1,0c0,0-0.1,0-0.1,0l-2.2-1.3l-0.1,0.6
						c0,0,0,0-0.1,0.1c0,0-0.1,0-0.1,0L154.5,268.8z"/>
					<path class="st2" d="M157.4,267c0,0,0.1,0,0.1,0c0,0,0.1,0,0.1,0l0.4,0.2c0,0,0,0,0,0.1c0,0,0,0.1,0,0.1l-0.4,0.2
						c0,0-0.1,0-0.1,0c0,0-0.1,0-0.1,0l-0.4-0.2c0,0,0,0,0-0.1c0,0,0-0.1,0-0.1L157.4,267z M158.9,267.9c0,0,0.1,0,0.1,0
						c0,0,0.1,0,0.1,0l0.4,0.2c0,0,0,0,0,0.1c0,0,0,0.1,0,0.1l-0.4,0.2c0,0-0.1,0-0.1,0c0,0-0.1,0-0.1,0l-0.4-0.2c0,0,0,0,0-0.1
						c0,0,0-0.1,0-0.1L158.9,267.9z"/>
					<path class="st2" d="M161.9,267c0,0-0.1,0-0.1,0c0,0-0.1,0-0.1,0l-0.5-0.3l-1.4,0.8c0,0-0.1,0-0.1,0c0,0-0.1,0-0.1,0l-0.3-0.2
						c0,0-0.1-0.1-0.1-0.1c0,0,0-0.1,0-0.1l-0.3-1.8c0-0.1,0-0.1,0.1-0.2l0.3-0.2c0,0,0.1,0,0.1,0c0,0,0.1,0,0.1,0l1.8,1l0.4-0.2
						c0,0,0.1,0,0.1,0c0,0,0.1,0,0.1,0l0.3,0.2c0,0,0,0,0,0.1c0,0,0,0.1,0,0.1l-0.4,0.2l0.5,0.3c0,0,0,0,0,0.1c0,0,0,0.1,0,0.1
						L161.9,267z M160.6,266.3l-0.9-0.5l0.2,1L160.6,266.3z"/>
					<path class="st2" d="M160.7,264.2C160.7,264.2,160.7,264.2,160.7,264.2c0-0.1,0-0.1,0-0.1l1.7-1c0,0,0.1,0,0.1,0
						c0,0,0.1,0,0.1,0l0.3,0.2c0,0,0,0,0,0.1c0,0,0,0.1,0,0.1l-1.2,0.7l0.5,0.4c0-0.1,0.1-0.1,0.2-0.2c0.1,0,0.1-0.1,0.2-0.1
						c0.2-0.1,0.3-0.2,0.5-0.2c0.2-0.1,0.4-0.1,0.6-0.1c0.2,0,0.4,0,0.6,0c0.2,0,0.4,0.1,0.5,0.2c0.2,0.1,0.3,0.2,0.4,0.3
						c0.1,0.1,0.1,0.2,0.1,0.3c0,0.1-0.1,0.2-0.2,0.3c-0.1,0.1-0.2,0.2-0.4,0.3c-0.2,0.1-0.4,0.2-0.6,0.3c-0.2,0.1-0.4,0.1-0.6,0.1
						c-0.2,0-0.3,0-0.5,0c-0.2,0-0.3-0.1-0.4-0.1c0,0-0.1,0-0.1-0.1c0,0,0,0,0.1-0.1l0.4-0.2c0,0,0.1,0,0.1,0c0,0,0.1,0,0.1,0
						c0.1,0,0.2,0,0.2,0c0.1,0,0.2,0,0.2,0c0.1,0,0.1,0,0.2-0.1c0.1,0,0.1-0.1,0.2-0.1c0.2-0.1,0.3-0.2,0.3-0.3
						c0-0.1-0.1-0.2-0.2-0.3c-0.1-0.1-0.3-0.1-0.5-0.1c-0.2,0-0.4,0.1-0.5,0.2c-0.1,0.1-0.2,0.1-0.2,0.1c0,0-0.1,0.1-0.1,0.1
						c0,0,0,0.1,0,0.1c0,0,0,0-0.1,0.1l-0.4,0.2c0,0-0.1,0-0.1,0c0,0-0.1,0-0.1,0L160.7,264.2z"/>
				</g>
				<g>
					<polygon class="st2" points="113.2,295 112.3,294.5 113.5,293.8 114.4,294.3 					"/>
					<polygon class="st2" points="115,294 113.2,292.9 114.4,292.2 116.3,293.3 					"/>
					<polygon class="st2" points="116.9,292.9 114.1,291.3 115.3,290.6 118.1,292.2 					"/>
					<polygon class="st2" points="118.7,291.9 115,289.7 116.3,289 119.9,291.1 					"/>
				</g>
				<g id="XMLID_557_">
					<path id="XMLID_571_" class="st2" d="M201.9,240.4c-0.3,0-0.6,0-0.7,0.1l-4.6,2.6c-0.3,0.2-0.2,0.5,0.2,0.7l1.7,1
						c0.2,0.1,0.5,0.2,0.8,0.2c0.1,0,0.3,0,0.4,0c0.1,0,0.3-0.1,0.4-0.1l4.6-2.6c0.3-0.2,0.2-0.5-0.2-0.7l-1.7-1
						C202.5,240.5,202.2,240.4,201.9,240.4z M199.2,244.9c-0.1,0-0.2-0.1-0.3-0.1l-1.7-1c-0.3-0.2-0.4-0.4-0.1-0.5l4.6-2.6
						c0.1,0,0.1-0.1,0.2-0.1c0,0,0.1,0,0.1,0c0.1,0,0.2,0.1,0.3,0.1l1.7,1c0.3,0.2,0.4,0.4,0.1,0.5l-4.6,2.6
						C199.4,244.9,199.3,244.9,199.2,244.9z"/>
					<g id="XMLID_568_">
						<path class="st2" d="M198.2,242.9l2,1.1l-0.7,0.4c-0.1,0-0.2,0-0.2,0l-1.5-0.8c-0.2-0.1-0.3-0.3-0.1-0.4L198.2,242.9z"/>
						<polygon class="st2" points="198.6,242.7 199.4,242.2 201.4,243.4 200.5,243.9 						"/>
						<polygon class="st2" points="199.7,242 200.6,241.5 202.6,242.7 201.7,243.2 						"/>
						<path class="st2" d="M201.9,240.9l1.4,0.8c0.3,0.2,0.2,0.4-0.1,0.6l-0.3,0.2l-2-1.1l0.7-0.4
							C201.7,240.9,201.9,240.9,201.9,240.9z"/>
					</g>
					<g id="XMLID_564_">
						<path id="XMLID_567_" class="st2" d="M202.9,240.5c0.1-0.1,0.5,0,0.8,0.2l0.3,0.2c0.3,0.2,0.5,0.4,0.4,0.5l-0.2,0.1l-1.6-0.9
							C202.7,240.7,202.8,240.6,202.9,240.5z"/>
					</g>
				</g>
				<polygon class="st2" points="190.2,248.1 193.8,245 195.6,247.7 193.2,247 				"/>
			</g>
		</g>
		<g id="Button">
			<g id="XMLID_606_">
				<path id="XMLID_618_" class="st4" d="M266,378.1v0.9c0,1.4,1,3.1,2.2,3.8l17.2,9.9c1.2,0.7,3.2,0.7,4.4,0l84.6-48.9
					c1.2-0.7,2.2-2.4,2.2-3.8v-0.9c0-1.4-1-3.1-2.2-3.8l-17.2-9.9c-1.2-0.7-3.2-0.7-4.4,0l-84.6,48.9C266.9,375,266,376.7,266,378.1
					z"/>
				<path id="XMLID_616_" class="st7" d="M374.6,335.5c0.9,0.7,0.8,1.7-0.3,2.3l-84.6,48.9c-0.6,0.4-1.4,0.5-2.2,0.5l0,5.9
					c0.8,0,1.6-0.2,2.2-0.5l84.6-48.9c1.2-0.7,2.2-2.4,2.2-3.8l0-0.9C376.4,337.8,375.6,336.3,374.6,335.5z"/>
				<path id="XMLID_614_" class="st8" d="M267.8,374.5c-1,0.8-1.9,2.3-1.9,3.6l0,0.9c0,1.4,1,3.1,2.2,3.8l17.2,9.9
					c0.6,0.4,1.4,0.5,2.2,0.5l0-5.9c-0.8,0-1.6-0.2-2.2-0.5l-17.2-9.9C267.1,376.2,267,375.2,267.8,374.5z"/>
			</g>
			<g>
				<g>
					<path class="st2" d="M293.2,368.3c0.1-0.1,0.3-0.1,0.4-0.1c0.2,0,0.3,0,0.4,0l9,2.5c0.1,0,0.2,0,0.2,0.1c0.1,0,0.1,0.1,0.1,0.1
						s0,0.1-0.1,0.1l-1.3,0.8c-0.1,0.1-0.3,0.1-0.4,0.1c-0.1,0-0.2,0-0.3,0l-1.2-0.3l-2.8,1.6l0.6,0.7c0,0,0.1,0.1,0.1,0.2
						c0,0.1-0.1,0.1-0.2,0.2l-1.3,0.8c-0.1,0-0.1,0.1-0.2,0.1c-0.1,0-0.2,0-0.2-0.1c0,0-0.1-0.1-0.1-0.1l-4.4-5.2
						c-0.1-0.1-0.1-0.1-0.1-0.2c0-0.1,0.1-0.2,0.2-0.3L293.2,368.3z M296.1,371.9l1.7-1l-3.4-1L296.1,371.9z"/>
					<path class="st2" d="M300,364.3c0.5-0.3,1-0.5,1.6-0.6c0.5-0.1,1.1-0.2,1.7-0.3c0.6,0,1.1,0,1.6,0.1c0.5,0.1,1,0.3,1.5,0.5
						c0.2,0.1,0.3,0.2,0.4,0.2c0.1,0.1,0.2,0.1,0.4,0.2c0.1,0.1,0.2,0.1,0.4,0.2c0.1,0.1,0.2,0.1,0.4,0.2c0.4,0.3,0.7,0.5,0.9,0.9
						c0.2,0.3,0.3,0.6,0.3,0.9c0,0.3-0.2,0.6-0.4,0.9c-0.3,0.3-0.6,0.6-1.1,0.9l-2.9,1.7c-0.1,0-0.2,0.1-0.3,0.1
						c-0.1,0-0.2,0-0.3-0.1l-6.9-4c-0.1,0-0.1-0.1-0.1-0.2c0-0.1,0-0.1,0.1-0.2L300,364.3z M304.3,365.2c-0.9-0.4-1.7-0.4-2.7,0.1
						l-1.1,0.6l4,2.3l1.1-0.7c0.9-0.5,0.9-1,0.2-1.5c-0.1-0.1-0.3-0.2-0.4-0.2c-0.1-0.1-0.3-0.1-0.4-0.2c-0.1-0.1-0.3-0.1-0.4-0.2
						C304.6,365.4,304.5,365.3,304.3,365.2z"/>
					<path class="st2" d="M307.7,359.9c0.5-0.3,1-0.5,1.6-0.6c0.5-0.1,1.1-0.2,1.7-0.3c0.6,0,1.1,0,1.6,0.1c0.5,0.1,1,0.3,1.5,0.5
						c0.2,0.1,0.3,0.2,0.4,0.2c0.1,0.1,0.2,0.1,0.4,0.2c0.1,0.1,0.2,0.1,0.4,0.2c0.1,0.1,0.2,0.1,0.4,0.2c0.4,0.3,0.7,0.5,0.9,0.9
						c0.2,0.3,0.3,0.6,0.3,0.9c0,0.3-0.2,0.6-0.4,0.9c-0.3,0.3-0.6,0.6-1.1,0.9l-2.9,1.7c-0.1,0-0.2,0.1-0.3,0.1
						c-0.1,0-0.2,0-0.3-0.1l-6.9-4c-0.1,0-0.1-0.1-0.1-0.2c0-0.1,0-0.1,0.1-0.2L307.7,359.9z M312,360.8c-0.9-0.4-1.7-0.4-2.7,0.1
						l-1.1,0.6l4,2.3l1.1-0.7c0.9-0.5,0.9-1,0.2-1.5c-0.1-0.1-0.3-0.2-0.4-0.2c-0.1-0.1-0.3-0.1-0.4-0.2c-0.1-0.1-0.3-0.1-0.4-0.2
						C312.3,360.9,312.1,360.9,312,360.8z"/>
					<path class="st2" d="M319.7,353c0.1,0,0.2-0.1,0.3-0.1c0.1,0,0.2,0,0.3,0.1l1.1,0.6c0.1,0,0.1,0.1,0.1,0.2s0,0.1-0.1,0.2
						l-1.9,1.1l5.4,3.1c0.1,0,0.1,0.1,0.1,0.2c0,0.1,0,0.1-0.1,0.2l-1.4,0.8c-0.1,0-0.2,0.1-0.3,0.1c-0.1,0-0.2,0-0.3-0.1l-5.4-3.1
						l-1.9,1.1c-0.1,0-0.2,0.1-0.3,0.1c-0.1,0-0.2,0-0.3-0.1l-1.1-0.6c-0.1,0-0.1-0.1-0.1-0.2c0-0.1,0-0.1,0.1-0.2L319.7,353z"/>
					<path class="st2" d="M323.3,354.1c-0.4-0.2-0.7-0.5-0.9-0.8c-0.2-0.3-0.3-0.6-0.3-0.9c0-0.3,0.2-0.6,0.4-0.9
						c0.2-0.3,0.6-0.6,1.2-0.9c0.5-0.3,1.1-0.5,1.6-0.7c0.6-0.1,1.1-0.2,1.6-0.2c0.5,0,1.1,0,1.6,0.2c0.5,0.1,1,0.3,1.4,0.5
						c0.3,0.2,0.6,0.3,1,0.5c0.3,0.2,0.6,0.4,0.9,0.6c0.4,0.2,0.7,0.5,0.9,0.8c0.2,0.3,0.3,0.6,0.3,0.9c0,0.3-0.2,0.6-0.4,0.9
						c-0.3,0.3-0.6,0.6-1.2,0.9c-0.5,0.3-1.1,0.5-1.6,0.7c-0.5,0.1-1.1,0.2-1.6,0.2c-0.5,0-1.1,0-1.6-0.2c-0.5-0.1-1-0.3-1.4-0.5
						c-0.3-0.2-0.6-0.3-1-0.5C323.9,354.4,323.6,354.2,323.3,354.1z M329.8,352.4c-0.1-0.1-0.3-0.2-0.4-0.3
						c-0.1-0.1-0.3-0.2-0.5-0.3c-0.2-0.1-0.3-0.2-0.5-0.3c-0.2-0.1-0.3-0.2-0.4-0.2c-0.2-0.1-0.4-0.2-0.6-0.2
						c-0.2-0.1-0.4-0.1-0.6-0.1c-0.2,0-0.4,0-0.7,0.1c-0.2,0.1-0.4,0.1-0.7,0.3c-0.2,0.1-0.4,0.3-0.5,0.4c-0.1,0.1-0.1,0.3-0.1,0.4
						c0,0.1,0,0.3,0.1,0.4c0.1,0.1,0.2,0.2,0.4,0.3c0.1,0.1,0.2,0.2,0.4,0.3c0.1,0.1,0.3,0.2,0.5,0.3c0.2,0.1,0.3,0.2,0.5,0.3
						c0.2,0.1,0.3,0.2,0.5,0.2c0.4,0.2,0.8,0.3,1.2,0.3c0.4,0,0.9-0.1,1.3-0.4c0.4-0.3,0.6-0.5,0.6-0.8
						C330.3,352.9,330.2,352.7,329.8,352.4z"/>
					<path class="st2" d="M335.2,347.3c0.1,0.1,0.2,0.1,0.4,0.2c0.2,0.1,0.3,0.2,0.5,0.3c0.2,0.1,0.3,0.2,0.5,0.3
						c0.2,0.1,0.3,0.2,0.4,0.2c0.2,0.1,0.4,0.2,0.6,0.2c0.2,0.1,0.4,0.1,0.6,0.1c0.2,0,0.4,0,0.7-0.1c0.2-0.1,0.5-0.2,0.7-0.3
						c0.2-0.1,0.4-0.3,0.5-0.4c0.1-0.1,0.2-0.2,0.2-0.3c0-0.1,0-0.2,0-0.3c0-0.1-0.1-0.2-0.2-0.2c-0.1-0.1-0.1-0.2-0.1-0.2
						c0-0.1,0.1-0.1,0.2-0.2l1.4-0.8c0.1,0,0.1-0.1,0.2-0.1c0.1,0,0.2,0,0.2,0.1c0.4,0.2,0.6,0.5,0.8,0.7c0.1,0.3,0.2,0.6,0.1,0.9
						c-0.1,0.3-0.2,0.6-0.5,0.9c-0.3,0.3-0.6,0.6-1.1,0.9c-0.5,0.3-1,0.5-1.6,0.7c-0.6,0.1-1.1,0.2-1.6,0.2c-0.5,0-1.1,0-1.6-0.2
						c-0.5-0.1-1-0.3-1.4-0.5c-0.3-0.2-0.6-0.3-1-0.5c-0.3-0.2-0.6-0.4-0.9-0.6c-0.4-0.2-0.7-0.5-0.9-0.8c-0.2-0.3-0.3-0.6-0.3-0.9
						c0-0.3,0.2-0.6,0.4-0.9c0.3-0.3,0.6-0.6,1.1-0.9c0.5-0.3,1-0.5,1.5-0.6c0.5-0.2,1.1-0.2,1.6-0.3c0.5,0,1,0,1.5,0.1
						c0.5,0.1,0.9,0.2,1.3,0.4c0.1,0,0.1,0.1,0.1,0.1c0,0.1,0,0.1-0.1,0.1l-1.4,0.8c-0.1,0.1-0.2,0.1-0.3,0.1c-0.1,0-0.2,0-0.4-0.1
						c-0.1,0-0.2-0.1-0.4-0.1c-0.2,0-0.3,0-0.5,0c-0.2,0-0.4,0-0.6,0.1c-0.2,0.1-0.4,0.2-0.7,0.3c-0.2,0.1-0.4,0.3-0.5,0.4
						c-0.1,0.1-0.1,0.3-0.1,0.4c0,0.1,0.1,0.2,0.2,0.4C334.9,347.1,335.1,347.2,335.2,347.3z"/>
					<path class="st2" d="M341.9,340.1c0.1-0.1,0.3-0.1,0.4-0.1c0.2,0,0.3,0,0.4,0l9,2.5c0.1,0,0.2,0,0.2,0.1c0.1,0,0.1,0.1,0.1,0.1
						c0,0.1,0,0.1-0.1,0.1l-1.3,0.8c-0.1,0.1-0.3,0.1-0.4,0.1c-0.1,0-0.2,0-0.3,0l-1.2-0.3l-2.8,1.6l0.6,0.7c0,0,0.1,0.1,0.1,0.2
						c0,0.1-0.1,0.1-0.2,0.2l-1.3,0.8c-0.1,0-0.1,0.1-0.2,0.1c-0.1,0-0.2,0-0.2-0.1c0,0-0.1-0.1-0.1-0.1l-4.4-5.2
						c-0.1-0.1-0.1-0.1-0.1-0.2c0-0.1,0.1-0.2,0.2-0.3L341.9,340.1z M344.9,343.8l1.7-1l-3.4-1L344.9,343.8z"/>
					<path class="st2" d="M348.8,336.2c0.5-0.3,0.9-0.5,1.4-0.6c0.5-0.2,0.9-0.3,1.4-0.3c0.5,0,0.9,0,1.4,0.1
						c0.4,0.1,0.9,0.3,1.3,0.5c0.5,0.3,0.9,0.6,1,1c0.1,0.3,0.1,0.7-0.1,1l3.8,0.7c0.1,0,0.1,0,0.1,0c0.1,0,0.1,0.1,0.1,0.1
						s0,0.1-0.1,0.1l-1.4,0.8c-0.1,0.1-0.3,0.1-0.4,0.1c-0.1,0-0.2,0-0.3,0l-3.4-0.6l-1,0.6l2.3,1.3c0.1,0,0.1,0.1,0.1,0.2
						c0,0.1,0,0.1-0.1,0.2l-1.4,0.8c-0.1,0-0.2,0.1-0.3,0.1c-0.1,0-0.2,0-0.3-0.1l-6.9-4c-0.1,0-0.1-0.1-0.1-0.2
						c0-0.1,0-0.1,0.1-0.2L348.8,336.2z M350.8,338.7l1.2-0.7c0.3-0.2,0.5-0.3,0.6-0.5c0.1-0.2,0-0.4-0.3-0.5
						c-0.3-0.2-0.6-0.2-0.9-0.2c-0.3,0-0.6,0.2-0.9,0.3l-1.2,0.7L350.8,338.7z"/>
					<path class="st2" d="M358.4,330.6c0.1,0,0.2-0.1,0.3-0.1c0.1,0,0.2,0,0.3,0.1l1.1,0.6c0.1,0,0.1,0.1,0.1,0.2
						c0,0.1,0,0.1-0.1,0.2l-1.9,1.1l5.4,3.1c0.1,0,0.1,0.1,0.1,0.2c0,0.1,0,0.1-0.1,0.2l-1.4,0.8c-0.1,0-0.2,0.1-0.3,0.1
						c-0.1,0-0.2,0-0.3-0.1l-5.4-3.1l-1.9,1.1c-0.1,0-0.2,0.1-0.3,0.1c-0.1,0-0.2,0-0.3-0.1l-1.1-0.6c-0.1,0-0.1-0.1-0.1-0.2
						c0-0.1,0-0.1,0.1-0.2L358.4,330.6z"/>
				</g>
				<path class="st2" d="M279.9,374c-2.7,1.5-2.7,4.1,0,5.6c2.7,1.5,7,1.5,9.7,0c2.7-1.5,2.7-4.1,0-5.6
					C287,372.5,282.6,372.5,279.9,374z M287.9,375.9l-1.8,1l1.8,1c0.3,0.2,0.3,0.5,0,0.7c-0.3,0.2-0.9,0.2-1.2,0l-1.8-1l-1.8,1
					c-0.3,0.2-0.9,0.2-1.2,0c-0.3-0.2-0.3-0.5,0-0.7l1.8-1l-1.8-1c-0.3-0.2-0.3-0.5,0-0.7c0.3-0.2,0.9-0.2,1.2,0l1.8,1l1.8-1
					c0.3-0.2,0.9-0.2,1.2,0C288.3,375.4,288.3,375.7,287.9,375.9z"/>
			</g>
		</g>
	</g>
</g>
<g id="Cart_1_">
	<g id="Cart">
		<g>
			<g>
				<path id="XMLID_570_" class="st3" d="M298.2,308.6c0-4.3-3-9.5-6.7-11.7c-1.9-1.1-3.7-1.2-4.9-0.4l0,0l-4.6,2.6l9.5,16.5
					l4.5-2.6l0,0C297.4,312.3,298.2,310.8,298.2,308.6z"/>
				<path id="XMLID_569_" class="st2" d="M286.8,299.6c3.7,2.2,6.7,7.4,6.7,11.7c0,4.3-3.1,6-6.8,3.8c-3.7-2.2-6.7-7.4-6.7-11.7
					C280.1,299.2,283.1,297.4,286.8,299.6z"/>
				<path id="XMLID_527_" class="st5" d="M284.5,306.1c0-1.7,1-2.4,2.3-1.7c1.3,0.7,2.3,2.7,2.3,4.4c0,1.7-1,2.4-2.3,1.7
					C285.5,309.7,284.5,307.7,284.5,306.1z"/>
				<path class="st7" d="M293.5,311.3c0-1.4-0.3-3-0.9-4.5l-11.6-6.7c-0.6,0.8-0.9,1.9-0.9,3.4c0,0.1,0,0.1,0,0.2L293.5,311.3
					C293.5,311.4,293.5,311.3,293.5,311.3z"/>
			</g>
			<g>
				<path class="st2" d="M250.3,345.2c-2.5,0.1-5.1-0.3-7.1-1.3l-63-36.3c-3.8-1.9-8.1-6.9-8.4-11.6l-1.9-44.9l3.5-0.2l1.9,44.9
					c0.2,3.2,3.5,7.2,6.4,8.7l63,36.3c2.9,1.5,7.9,1.2,10.6-0.6l42-24.2c1-0.7,1.6-1.5,1.5-2.1c0-0.7-0.7-1.3-1.7-1.9l-67.5-39.2
					c-3.8-1.9-8.1-6.9-8.3-11.6l-0.9-24.9l3.5-0.2l0.9,24.9c0.2,3.2,3.5,7.2,6.4,8.7l67.5,39.2c2.3,1.1,3.6,2.8,3.7,4.8
					c0.1,2-1,3.9-3.1,5.3l-42,24.2C255.4,344.4,252.9,345.1,250.3,345.2z"/>
			</g>
			<g>
				<path id="XMLID_1043_" class="st3" d="M239,344.2c0-4.3-3-9.5-6.7-11.7c-1.9-1.1-3.7-1.2-4.9-0.4l0,0l-4.6,2.6l9.5,16.5l4.5-2.6
					l0,0C238.2,347.9,239,346.4,239,344.2z"/>
				<path id="XMLID_555_" class="st2" d="M227.6,335.2c3.7,2.2,6.7,7.4,6.7,11.7c0,4.3-3.1,6-6.8,3.8c-3.7-2.2-6.7-7.4-6.7-11.7
					C220.9,334.7,223.9,333,227.6,335.2z"/>
				<path id="XMLID_536_" class="st5" d="M225.3,341.6c0-1.7,1-2.4,2.3-1.7c1.3,0.7,2.3,2.7,2.3,4.4c0,1.7-1,2.4-2.3,1.7
					C226.3,345.3,225.3,343.3,225.3,341.6z"/>
			</g>
			<g>
				<path id="XMLID_1033_" class="st3" d="M192.4,317.4c0-4.3-2.9-9.5-6.6-11.7c-1.9-1.1-3.7-1.2-4.9-0.4l0,0l-4.6,2.6l9.5,16.5
					l4.5-2.6l0,0C191.6,321.1,192.4,319.6,192.4,317.4z"/>
				<path id="XMLID_1032_" class="st2" d="M181.1,308.3c3.7,2.2,6.7,7.4,6.6,11.7c0,4.3-3.1,6-6.8,3.8c-3.7-2.2-6.7-7.4-6.6-11.7
					C174.3,307.9,177.4,306.1,181.1,308.3z"/>
				<path id="XMLID_1031_" class="st5" d="M178.7,314.8c0-1.7,1-2.4,2.3-1.7c1.3,0.7,2.3,2.7,2.2,4.4c0,1.7-1,2.4-2.3,1.7
					C179.7,318.4,178.7,316.4,178.7,314.8z"/>
			</g>
		</g>
		<g id="XMLID_524_">
			<path id="XMLID_525_" class="st2" d="M162.4,196.7c-1.3-4.4,0.7-10,4.5-12.5l41.9-23.7c3.8-2.5,8-0.8,9.3,3.6l2.9,9.4l-2.9,1.7
				l-3.1-9.5c-0.7-2.3-3-3.1-5-1.8L169.2,187c-2.4,1.6-3.8,5.2-2.9,8l2.5,9l-3.4,2L162.4,196.7z"/>
		</g>
		<g>
			<g>
				<polygon id="XMLID_963_" class="st4" points="227.2,242.1 170.9,274.6 253.2,322.1 309.5,289.6 				"/>
				<polygon id="XMLID_958_" class="st9" points="227.2,242.1 170.9,274.6 253.2,322.1 309.5,289.6 				"/>
			</g>
			<g>
				<polygon id="XMLID_516_" class="st4" points="165.3,206.1 221,173.6 227.2,242.1 170.9,274.6 				"/>
				<polygon id="XMLID_320_" class="st10" points="165.3,206.1 221,173.6 227.2,242.1 170.9,274.6 				"/>
			</g>
			<g>
				<path id="XMLID_500_" class="st4" d="M221,173.6l6.2,68.6l82.3,47.5l13-57.5L221,173.6z M249.8,239.5c-2.3,0.9-4.9-0.5-5.9-3.1
					l-13.6-35.3c-1-2.6,0.1-5.3,2.3-6.2c2.3-0.9,4.9,0.5,5.9,3.1l13.6,35.3C253.1,235.8,252,238.6,249.8,239.5z M275.5,251.6
					c-2.3,0.9-4.9-0.5-5.9-3.1L256,213.2c-1-2.6,0.1-5.3,2.3-6.2c2.3-0.9,4.9,0.5,5.9,3.1l13.6,35.3
					C278.8,247.9,277.7,250.7,275.5,251.6z M301.2,263.7c-2.3,0.9-4.9-0.5-5.9-3.1l-13.6-35.3c-1-2.6,0.1-5.3,2.3-6.2
					c2.3-0.9,4.9,0.5,5.9,3.1l13.6,35.3C304.5,260,303.4,262.8,301.2,263.7z"/>
				<path id="XMLID_367_" class="st11" d="M221,173.6l6.2,68.6l82.3,47.5l13-57.5L221,173.6z M249.8,239.5c-2.3,0.9-4.9-0.5-5.9-3.1
					l-13.6-35.3c-1-2.6,0.1-5.3,2.3-6.2c2.3-0.9,4.9,0.5,5.9,3.1l13.6,35.3C253.1,235.8,252,238.6,249.8,239.5z M275.5,251.6
					c-2.3,0.9-4.9-0.5-5.9-3.1L256,213.2c-1-2.6,0.1-5.3,2.3-6.2c2.3-0.9,4.9,0.5,5.9,3.1l13.6,35.3
					C278.8,247.9,277.7,250.7,275.5,251.6z M301.2,263.7c-2.3,0.9-4.9-0.5-5.9-3.1l-13.6-35.3c-1-2.6,0.1-5.3,2.3-6.2
					c2.3-0.9,4.9,0.5,5.9,3.1l13.6,35.3C304.5,260,303.4,262.8,301.2,263.7z"/>
			</g>
			<g>
				<g>
					<path id="XMLID_574_" class="st4" d="M165.3,206.1l5.6,68.5l82.3,47.5l13-57.5L165.3,206.1z M197.8,273.6
						c-2.3,0.9-4.9-0.5-5.9-3.1l-13.6-35.3c-1-2.6,0.1-5.3,2.3-6.2c2.3-0.9,4.9,0.5,5.9,3.1l13.6,35.3
						C201.1,269.9,200,272.7,197.8,273.6z M223.5,285.6c-2.3,0.9-4.9-0.5-5.9-3.1L204,247.3c-1-2.6,0.1-5.3,2.3-6.2
						c2.3-0.9,4.9,0.5,5.9,3.1l13.6,35.3C226.8,282,225.7,284.8,223.5,285.6z M249.2,297.7c-2.3,0.9-4.9-0.5-5.9-3.1l-13.6-35.3
						c-1-2.6,0.1-5.3,2.3-6.2c2.3-0.9,4.9,0.5,5.9,3.1l13.6,35.3C252.5,294.1,251.4,296.9,249.2,297.7z"/>
				</g>
				<g class="st7">
					<path id="XMLID_670_" d="M165.3,206.1l5.6,68.5l82.3,47.5l13-57.5L165.3,206.1z M197.8,273.6c-2.3,0.9-4.9-0.5-5.9-3.1
						l-13.6-35.3c-1-2.6,0.1-5.3,2.3-6.2c2.3-0.9,4.9,0.5,5.9,3.1l13.6,35.3C201.1,269.9,200,272.7,197.8,273.6z M223.5,285.6
						c-2.3,0.9-4.9-0.5-5.9-3.1L204,247.3c-1-2.6,0.1-5.3,2.3-6.2c2.3-0.9,4.9,0.5,5.9,3.1l13.6,35.3
						C226.8,282,225.7,284.8,223.5,285.6z M249.2,297.7c-2.3,0.9-4.9-0.5-5.9-3.1l-13.6-35.3c-1-2.6,0.1-5.3,2.3-6.2
						c2.3-0.9,4.9,0.5,5.9,3.1l13.6,35.3C252.5,294.1,251.4,296.9,249.2,297.7z"/>
				</g>
				<g>
					<polygon id="XMLID_260_" class="st4" points="266.2,264.6 322.5,232.1 309.5,289.6 253.2,322.1 					"/>
					<polygon id="XMLID_259_" class="st12" points="266.2,264.6 322.5,232.1 309.5,289.6 253.2,322.1 					"/>
				</g>
			</g>
		</g>
	</g>
</g>
<g id="Arrow_1_">
	<g id="Arrow">
		<polygon class="st3" points="286.4,140.5 279.9,144.3 279.9,124.6 276,122.3 258.2,132.6 258.1,156.9 247.7,162.8 271,177.9 
			290.4,142.8 		"/>
		<polygon class="st2" points="262.1,134.9 262.1,159.2 251.7,165.1 271,177.9 290.4,142.8 279.9,148.9 279.9,124.6 		"/>
		<polygon class="st5" points="258.2,132.6 262.1,134.9 262.1,159.2 258.1,156.9 		"/>
	</g>
</g>
<g id="Bag_1_">
	<g id="Bag">
		<polygon id="XMLID_679_" class="st4" points="177.6,155.8 233.9,123.2 229.2,55.4 177.6,85.2 		"/>
		<polygon id="XMLID_624_" class="st13" points="177.6,155.8 233.9,123.2 229.2,55.4 177.6,85.2 		"/>
		<polygon id="XMLID_673_" class="st4" points="177.6,85.2 177.6,79.8 163.5,77.1 215.2,47.3 219.9,55.4 229.2,55.4 		"/>
		<polygon id="XMLID_627_" class="st14" points="177.6,85.2 177.6,79.8 163.5,77.1 215.2,47.3 219.9,55.4 229.2,55.4 		"/>
		<polygon id="XMLID_671_" class="st4" points="215.2,47.3 215.2,63.5 219.9,60.8 219.9,55.4 		"/>
		<polygon id="XMLID_630_" class="st15" points="215.2,47.3 215.2,63.5 219.9,60.8 219.9,55.4 		"/>
		<polygon id="XMLID_669_" class="st4" points="229.2,55.4 219.9,55.4 219.9,60.8 		"/>
		<polygon id="XMLID_665_" class="st16" points="229.2,55.4 219.9,55.4 219.9,60.8 		"/>
		<polygon id="XMLID_667_" class="st4" points="163.5,77.1 158.8,144.9 177.6,155.8 177.6,85.2 177.6,79.8 		"/>
		<polygon id="XMLID_634_" class="st15" points="163.5,77.1 158.8,144.9 177.6,155.8 177.6,85.2 177.6,79.8 		"/>
		<polygon id="XMLID_666_" class="st4" points="177.6,79.8 168.2,150.3 177.6,155.8 		"/>
		<polygon id="XMLID_668_" class="st16" points="177.6,79.8 168.2,150.3 177.6,155.8 		"/>
		<polygon class="st4" points="177.6,155.8 169,144.5 158.8,144.9 		"/>
		<g>
			<path id="XMLID_658_" class="st3" d="M178.7,76.4c0,0.9,0.6,1.3,1.4,0.8c0.8-0.5,1.4-1.6,1.4-2.5c0-0.9-0.6-1.3-1.4-0.8
				C179.4,74.3,178.7,75.5,178.7,76.4z"/>
			<path id="XMLID_657_" class="st3" d="M197.9,65.5c0,0.9,0.6,1.3,1.4,0.8c0.8-0.5,1.4-1.6,1.4-2.5c0-0.9-0.6-1.3-1.4-0.8
				C198.6,63.5,197.9,64.6,197.9,65.5z"/>
			<g id="XMLID_635_">
				<path class="st3" d="M180.2,75.3c-0.3,0-0.5-0.2-0.5-0.5V63c0-5.2,4.4-11.9,9.9-15.1c3-1.7,5.9-2.1,7.9-0.9
					c1.6,0.9,2.5,2.7,2.5,5v12c0,0.3-0.2,0.5-0.5,0.5c-0.3,0-0.5-0.2-0.5-0.5V52c0-2-0.7-3.4-2-4.2c-1.7-1-4.2-0.6-6.9,0.9
					c-5.2,3-9.4,9.4-9.4,14.2v11.8C180.6,75.1,180.4,75.3,180.2,75.3z"/>
			</g>
		</g>
		<g>
			<path id="XMLID_663_" class="st2" d="M193,84.5c0,0.9,0.6,1.3,1.4,0.8c0.8-0.5,1.4-1.6,1.4-2.5c0-0.9-0.6-1.3-1.4-0.8
				C193.7,82.5,193,83.6,193,84.5z"/>
			<path id="XMLID_662_" class="st2" d="M212.3,73.7c0,0.9,0.6,1.3,1.4,0.8c0.8-0.5,1.4-1.6,1.4-2.5c0-0.9-0.6-1.3-1.4-0.8
				C212.9,71.6,212.3,72.7,212.3,73.7z"/>
			<g id="XMLID_656_">
				<path class="st2" d="M194.5,83.5c-0.3,0-0.5-0.2-0.5-0.5V71.1c0-5.2,4.4-11.9,9.9-15.1c3-1.7,5.9-2.1,7.9-0.9
					c1.6,0.9,2.5,2.7,2.5,5v12c0,0.3-0.2,0.5-0.5,0.5c-0.3,0-0.5-0.2-0.5-0.5v-12c0-2-0.7-3.4-2-4.2c-1.7-1-4.2-0.6-6.9,0.9
					c-5.2,3-9.4,9.4-9.4,14.2V83C195,83.3,194.7,83.5,194.5,83.5z"/>
			</g>
		</g>
	</g>
</g>
<g id="Credit_Card">
	<g id="Card_1_">
		<path id="XMLID_861_" class="st4" d="M151.1,442.2l65.4-37.8c1.3-0.7,1.8-1.7,1.8-2.7c0-1,0-4.6,0-4.6c0,0-1.8,2.5-1.8,2.5
			L167,428.2l-15.9,9.2c-2.4,1.4-6.2,1.4-8.6,0l-99.1-57.2c0,0-1.7-2-1.7-2c0,0-0.1,3.4,0,4.6c0,0.8,0.7,1.6,1.8,2.3l99.1,57.2
			C144.9,443.6,148.7,443.6,151.1,442.2z"/>
		<path id="XMLID_854_" class="st7" d="M151.1,442.2l65.4-37.8c1.3-0.7,1.8-1.7,1.8-2.7c0-1,0-4.6,0-4.6c0,0-1.8,2.5-1.8,2.5
			L167,428.2l-15.9,9.2c-2.4,1.4-6.2,1.4-8.6,0l-99.1-57.2c0,0-1.7-2-1.7-2c0,0-0.1,3.4,0,4.6c0,0.8,0.7,1.6,1.8,2.3l99.1,57.2
			C144.9,443.6,148.7,443.6,151.1,442.2z"/>
		<path class="st3" d="M197.7,410.5L197.7,410.5v4.8l18.9-10.9c1.3-0.7,1.8-1.7,1.8-2.7c0-1,0-4.6,0-4.6c0,0-1.8,2.5-1.8,2.5
			L197.7,410.5z"/>
		<path id="XMLID_860_" class="st4" d="M216.6,399.6C216.6,399.6,216.6,399.5,216.6,399.6c2.4-1.4,2.3-3.6,0-5l-99.1-57.2
			c-2.4-1.4-6.2-1.4-8.6,0l-65.4,37.8c-2.4,1.4-2.4,3.6-0.1,4.9c0,0,0.1,0,0.1,0.1l99.1,57.2c2.4,1.4,6.2,1.4,8.6,0l15.9-9.2
			L216.6,399.6z"/>
		<path class="st2" d="M197.7,410.5l18.9-10.9c0,0,0.1,0,0.1-0.1c2.3-1.4,2.2-3.5-0.1-4.9l-99.1-57.2c-2.4-1.4-6.2-1.4-8.6,0
			L90,348.3L197.7,410.5z"/>
		<path class="st7" d="M41.7,378.2c0,0-0.1,3.4,0,4.6c0,0.8,0.7,1.6,1.8,2.3l99.1,57.2c1.5,0.9,3.5,1.2,5.5,1l0-4.8
			c-1.9,0.2-4-0.1-5.5-1l-99.1-57.2C43.4,380.1,41.7,378.2,41.7,378.2z"/>
		<g id="XMLID_833_">
			<path class="st17" d="M73.8,371.7l-1.9-1.1c-0.1-0.1-0.1-0.1-0.1-0.2c0-0.1,0-0.1,0.1-0.2c0.1,0,0.2-0.1,0.3-0.1
				c0.1,0,0.2,0,0.3,0.1l0.6,0.4l2.8-1.6c0.2-0.1,0.2-0.2,0.2-0.3c0-0.1-0.1-0.3-0.3-0.4c0,0,0,0,0,0c-0.1-0.1-0.1-0.1-0.1-0.2
				c0-0.1,0-0.1,0.1-0.2s0.2-0.1,0.3-0.1c0.1,0,0.2,0,0.3,0.1l0,0l0,0c0.4,0.2,0.5,0.4,0.6,0.7c0,0.3-0.1,0.5-0.4,0.7l-2.8,1.6
				l0.6,0.4c0.1,0.1,0.1,0.1,0.1,0.2c0,0.1,0,0.1-0.1,0.2c-0.1,0-0.2,0.1-0.3,0.1C73.9,371.8,73.8,371.7,73.8,371.7z"/>
			<path class="st17" d="M79.6,373.1l-1.3-0.7c-0.2-0.1-0.4-0.2-0.6-0.2c-0.2,0-0.4,0-0.6,0.1l-0.4,0.2c0,0-0.1,0-0.1,0.1
				c0,0,0,0.1,0.1,0.1l2.7,1.6c0.1,0,0.1,0.1,0.1,0.2c0,0.1,0,0.1-0.1,0.2c-0.1,0-0.2,0.1-0.3,0.1c-0.1,0-0.2,0-0.3-0.1l-3.2-1.8
				c-0.1,0-0.1-0.1-0.1-0.2c0-0.1,0-0.1,0.1-0.2l0.8-0.5c0.3-0.2,0.7-0.3,1.2-0.2c0.5,0,0.9,0.1,1.2,0.3l1.3,0.7
				c0.2,0.1,0.4,0.2,0.6,0.2c0.2,0,0.4,0,0.6-0.1l0.6-0.3c0.2-0.1,0.2-0.2,0.2-0.3c0-0.1-0.1-0.3-0.3-0.4l-1.3-0.7
				c-0.2-0.1-0.4-0.2-0.6-0.2c-0.2,0-0.4,0-0.6,0.1c-0.1,0-0.2,0.1-0.3,0.1c-0.1,0-0.2,0-0.3-0.1c-0.1-0.1-0.1-0.1-0.1-0.2
				c0-0.1,0-0.1,0.1-0.2c0.3-0.2,0.7-0.3,1.2-0.2c0.5,0,0.9,0.1,1.2,0.3l1.3,0.7c0.4,0.2,0.6,0.4,0.6,0.7c0,0.3-0.1,0.5-0.4,0.7
				l-0.6,0.3c-0.3,0.2-0.7,0.3-1.2,0.2C80.3,373.4,79.9,373.3,79.6,373.1z"/>
			<path class="st17" d="M85.7,377l-0.3,0.2c-0.3,0.2-0.7,0.3-1.2,0.2c-0.5,0-0.9-0.1-1.2-0.3l-1.3-0.7c-0.4-0.2-0.5-0.4-0.6-0.7
				c0-0.3,0.1-0.5,0.4-0.7c0.1,0,0.2-0.1,0.3-0.1c0.1,0,0.2,0,0.3,0.1c0.1,0.1,0.1,0.1,0.1,0.2c0,0.1,0,0.1-0.1,0.2
				c-0.2,0.1-0.2,0.2-0.2,0.3c0,0.1,0.1,0.3,0.3,0.4l1.3,0.7c0.2,0.1,0.4,0.2,0.6,0.2c0.2,0,0.4,0,0.6-0.1l0.3-0.2
				c0.2-0.1,0.2-0.2,0.2-0.3c0-0.1-0.1-0.3-0.3-0.4l-0.3-0.2c-0.1-0.1-0.1-0.1-0.1-0.2c0-0.1,0-0.1,0.1-0.2c0.1,0,0.2-0.1,0.3-0.1
				c0.1,0,0.2,0,0.3,0.1l0.3,0.2c0.2,0.1,0.4,0.2,0.6,0.2c0.2,0,0.4,0,0.6-0.1l0.3-0.2c0.2-0.1,0.2-0.2,0.2-0.3
				c0-0.1-0.1-0.3-0.3-0.4l-1.3-0.7c-0.2-0.1-0.4-0.2-0.6-0.2c-0.2,0-0.4,0-0.6,0.1c-0.1,0-0.2,0.1-0.3,0.1c-0.1,0-0.2,0-0.3-0.1
				c-0.1-0.1-0.1-0.1-0.1-0.2c0-0.1,0-0.1,0.1-0.2c0.3-0.2,0.7-0.3,1.2-0.2c0.5,0,0.9,0.1,1.2,0.3l1.3,0.7c0.4,0.2,0.5,0.4,0.6,0.7
				s-0.1,0.5-0.4,0.7l-0.3,0.2c-0.2,0.1-0.4,0.2-0.6,0.2c-0.2,0-0.5,0-0.7,0c0,0.1,0,0.3-0.1,0.4C86,376.8,85.8,376.9,85.7,377z"/>
			<path class="st17" d="M89.4,380.6c-0.1,0-0.2,0-0.3-0.1c-0.1-0.1-0.1-0.1-0.1-0.2s0-0.1,0.1-0.2l1.5-0.9
				c-0.3-0.1-0.6-0.2-0.8-0.3l-1.3-0.7c-0.4-0.2-0.5-0.4-0.6-0.7c0-0.3,0.1-0.5,0.4-0.7l1.4-0.8c0.1,0,0.2-0.1,0.3-0.1
				c0.1,0,0.2,0,0.3,0.1c0.1,0.1,0.1,0.1,0.1,0.2c0,0.1,0,0.1-0.1,0.2l-1.4,0.8c-0.2,0.1-0.2,0.2-0.2,0.3c0,0.1,0.1,0.3,0.3,0.4
				l1.3,0.7c0.2,0.1,0.4,0.2,0.6,0.2c0.2,0,0.4,0,0.6-0.1l1.4-0.8c0.1,0,0.2-0.1,0.3-0.1c0.1,0,0.2,0,0.3,0.1
				c0.1,0.1,0.1,0.1,0.1,0.2c0,0.1,0,0.1-0.1,0.2l-3.9,2.2C89.6,380.6,89.5,380.6,89.4,380.6z"/>
			<path class="st17" d="M99.3,383.1C99.3,383.1,99.3,383.2,99.3,383.1c0,0.1,0,0.1,0,0.2l1.8,1c0.4,0.2,0.5,0.4,0.6,0.7
				c0,0.3-0.1,0.5-0.4,0.7l-0.6,0.3c-0.3,0.2-0.7,0.3-1.2,0.2c-0.5,0-0.9-0.1-1.2-0.3l-1.3-0.7c-0.4-0.2-0.5-0.4-0.6-0.7
				c0-0.3,0.1-0.5,0.4-0.7c0.1,0,0.2-0.1,0.3-0.1c0.1,0,0.2,0,0.3,0.1c0.1,0.1,0.1,0.1,0.1,0.2c0,0.1,0,0.1-0.1,0.2
				c-0.2,0.1-0.2,0.2-0.2,0.3c0,0.1,0.1,0.3,0.3,0.4l1.3,0.7c0.2,0.1,0.4,0.2,0.6,0.2c0.2,0,0.4,0,0.6-0.1l0.6-0.3
				c0.2-0.1,0.2-0.2,0.2-0.3c0-0.1-0.1-0.3-0.3-0.4l-1.9-1.1c-0.2-0.1-0.3-0.2-0.3-0.4c0-0.1,0.1-0.2,0.2-0.3l1.4-0.8
				c0.1,0,0.2-0.1,0.3-0.1c0.1,0,0.2,0,0.3,0.1l3.2,1.8c0.1,0,0.1,0.1,0.1,0.2c0,0.1,0,0.1-0.1,0.2c-0.1,0-0.2,0.1-0.3,0.1
				c-0.1,0-0.2,0-0.3-0.1l-2.7-1.6c0,0-0.1,0-0.2,0c-0.1,0-0.1,0-0.1,0L99.3,383.1z"/>
			<path class="st17" d="M104.9,386.5l1.3,0.7c0.4,0.2,0.6,0.4,0.6,0.7c0,0.3-0.1,0.5-0.4,0.7l-0.6,0.3c-0.3,0.2-0.7,0.3-1.2,0.2
				c-0.5,0-0.9-0.1-1.2-0.3l-1.3-0.7c-0.4-0.2-0.5-0.4-0.6-0.7c0-0.3,0.1-0.5,0.4-0.7l2.2-1.3c0.3-0.2,0.7-0.3,1.2-0.2
				c0.5,0,0.9,0.1,1.2,0.3l1.3,0.7c0.4,0.2,0.6,0.4,0.6,0.7c0,0.3-0.1,0.5-0.4,0.7c-0.1,0-0.2,0.1-0.3,0.1c-0.1,0-0.2,0-0.3-0.1
				c-0.1-0.1-0.1-0.1-0.1-0.2c0-0.1,0-0.1,0.1-0.2c0.2-0.1,0.2-0.2,0.2-0.3s-0.1-0.3-0.3-0.4l-1.3-0.7c-0.2-0.1-0.4-0.2-0.6-0.2
				c-0.2,0-0.4,0-0.6,0.1l-0.7,0.4C104.5,386.3,104.7,386.4,104.9,386.5z M102.6,387.1c-0.2,0.1-0.2,0.2-0.2,0.3
				c0,0.1,0.1,0.3,0.3,0.4l1.3,0.7c0.2,0.1,0.4,0.2,0.6,0.2c0.2,0,0.4,0,0.6-0.1l0.6-0.3c0.2-0.1,0.2-0.2,0.2-0.3
				c0-0.1-0.1-0.3-0.3-0.4l-1.3-0.7c-0.2-0.1-0.4-0.2-0.6-0.2c-0.2,0-0.4,0-0.6,0.1L102.6,387.1z"/>
			<path class="st17" d="M112.3,390.9l-3.8,0.5c0,0,0,0-0.1,0c0,0,0,0-0.1,0c0,0,0,0-0.1,0c0,0-0.1,0-0.1,0c0,0,0,0-0.1,0
				c0,0-0.1,0-0.1,0c0,0,0,0-0.1,0c0,0-0.1,0-0.1,0c-0.1-0.1-0.1-0.1-0.2-0.2c0-0.1,0-0.1,0.1-0.2c0.1,0,0.2-0.1,0.4-0.1
				c1.2-0.2,2.4-0.3,3.5-0.5c0.1,0,0.2,0,0.3-0.1c0.1,0,0.2-0.1,0.3-0.1l0.1,0c0.2-0.1,0.2-0.2,0.2-0.3c0-0.1-0.1-0.3-0.3-0.4
				l-0.6-0.4l-0.3-0.2l-1.3-0.7c-0.1-0.1-0.1-0.1-0.1-0.2c0-0.1,0-0.1,0.1-0.2c0.1,0,0.2-0.1,0.3-0.1c0.1,0,0.2,0,0.3,0.1l1.3,0.7
				l0.3,0.2l0.6,0.4c0.4,0.2,0.5,0.4,0.6,0.7c0,0.3-0.1,0.5-0.4,0.7c-0.1,0.1-0.3,0.1-0.4,0.2C112.5,390.9,112.4,390.9,112.3,390.9z
				"/>
			<path class="st17" d="M116.3,394.7l-0.3,0.2c-0.3,0.2-0.7,0.3-1.2,0.2c-0.5,0-0.9-0.1-1.2-0.3l-1.3-0.7c-0.4-0.2-0.5-0.4-0.6-0.7
				c0-0.3,0.1-0.5,0.4-0.7l0.3-0.2c0.2-0.1,0.4-0.2,0.6-0.2c0.2,0,0.5,0,0.7,0c0-0.1,0-0.3,0.1-0.4c0.1-0.1,0.2-0.2,0.3-0.3l0.3-0.2
				c0.3-0.2,0.7-0.3,1.2-0.2c0.5,0,0.9,0.1,1.2,0.3l1.3,0.7c0.4,0.2,0.5,0.4,0.6,0.7c0,0.3-0.1,0.5-0.4,0.7l-0.3,0.2
				c-0.2,0.1-0.4,0.2-0.6,0.2c-0.2,0-0.5,0-0.7,0c0,0.1,0,0.3-0.1,0.4C116.6,394.5,116.5,394.6,116.3,394.7z M117.6,393.2
				c0.2-0.1,0.2-0.2,0.2-0.3c0-0.1-0.1-0.3-0.3-0.4l-1.3-0.7c-0.2-0.1-0.4-0.2-0.6-0.2c-0.2,0-0.4,0-0.6,0.1l-0.3,0.2
				c-0.2,0.1-0.2,0.2-0.2,0.3c0,0.1,0.1,0.3,0.3,0.4l1.3,0.7c0.2,0.1,0.4,0.2,0.6,0.2c0.2,0,0.4,0,0.6-0.1L117.6,393.2z
				 M115.7,394.3c0.2-0.1,0.2-0.2,0.2-0.3s-0.1-0.3-0.3-0.4l-1.3-0.7c-0.2-0.1-0.4-0.2-0.6-0.2c-0.2,0-0.4,0-0.6,0.1l-0.3,0.2
				c-0.2,0.1-0.2,0.2-0.2,0.3c0,0.1,0.1,0.3,0.3,0.4l1.3,0.7c0.2,0.1,0.4,0.2,0.6,0.2c0.2,0,0.4,0,0.6-0.1L115.7,394.3z"/>
			<path class="st17" d="M123.9,400.6l-1.3-0.7c-0.4-0.2-0.5-0.4-0.6-0.7c0-0.3,0.1-0.5,0.4-0.7c0.1,0,0.2-0.1,0.3-0.1
				c0.1,0,0.2,0,0.3,0.1c0.1,0.1,0.1,0.1,0.1,0.2c0,0.1,0,0.1-0.1,0.2c-0.2,0.1-0.2,0.2-0.2,0.3c0,0.1,0.1,0.3,0.3,0.4l1.3,0.7
				c0.2,0.1,0.4,0.2,0.6,0.2c0.2,0,0.4,0,0.6-0.1l0.7-0.4c-0.3-0.1-0.6-0.2-0.8-0.3l-1.3-0.7c-0.4-0.2-0.5-0.4-0.6-0.7
				c0-0.3,0.1-0.5,0.4-0.7l0.6-0.3c0.3-0.2,0.7-0.3,1.2-0.2c0.5,0,0.9,0.1,1.2,0.3l1.3,0.7c0.4,0.2,0.6,0.4,0.6,0.7
				c0,0.3-0.1,0.5-0.4,0.7l-2.2,1.3c-0.3,0.2-0.7,0.3-1.2,0.2C124.7,401,124.2,400.8,123.9,400.6z M127.8,399.1
				c0.2-0.1,0.2-0.2,0.2-0.3c0-0.1-0.1-0.3-0.3-0.4l-1.3-0.7c-0.2-0.1-0.4-0.2-0.6-0.2c-0.2,0-0.4,0-0.6,0.1l-0.6,0.3
				c-0.2,0.1-0.2,0.2-0.2,0.3c0,0.1,0.1,0.3,0.3,0.4l1.3,0.7c0.2,0.1,0.4,0.2,0.6,0.2c0.2,0,0.4,0,0.6-0.1L127.8,399.1z"/>
			<path class="st17" d="M128.7,403.4l-1.9-1.1c-0.1,0-0.1-0.1-0.1-0.2c0-0.1,0-0.1,0.1-0.2c0.1,0,0.2-0.1,0.3-0.1
				c0.1,0,0.2,0,0.3,0.1l0.6,0.4l2.8-1.6c0.2-0.1,0.2-0.2,0.2-0.3c0-0.1-0.1-0.3-0.3-0.4c0,0,0,0,0,0c-0.1-0.1-0.1-0.1-0.1-0.2
				c0-0.1,0-0.1,0.1-0.2c0.1,0,0.2-0.1,0.3-0.1c0.1,0,0.2,0,0.3,0.1l0,0l0,0c0.4,0.2,0.5,0.4,0.6,0.7c0,0.3-0.1,0.5-0.4,0.7
				l-2.8,1.6l0.6,0.4c0.1,0.1,0.1,0.1,0.1,0.2c0,0.1,0,0.1-0.1,0.2c-0.1,0-0.2,0.1-0.3,0.1C128.9,403.5,128.8,403.4,128.7,403.4z"/>
			<path class="st17" d="M132.8,405.8l-1.3-0.7c-0.4-0.2-0.5-0.4-0.6-0.7c0-0.3,0.1-0.5,0.4-0.7l2.2-1.3c0.3-0.2,0.7-0.3,1.2-0.2
				c0.5,0,0.9,0.1,1.2,0.3l1.3,0.7c0.4,0.2,0.5,0.4,0.6,0.7c0,0.3-0.1,0.5-0.4,0.7l-2.2,1.3c-0.3,0.2-0.7,0.3-1.2,0.2
				C133.6,406.1,133.2,406,132.8,405.8z M132.1,404.7l1.3,0.7c0.1,0.1,0.2,0.1,0.4,0.1l0.4-2.8L132,404c-0.2,0.1-0.2,0.2-0.2,0.3
				C131.8,404.5,131.9,404.6,132.1,404.7z M136.7,403.6l-1.3-0.7c-0.1-0.1-0.2-0.1-0.4-0.1l-0.4,2.8l2.2-1.2
				c0.2-0.1,0.2-0.2,0.2-0.3C137,403.8,136.9,403.7,136.7,403.6z"/>
			<path class="st17" d="M137.6,408.6l-1.9-1.1c-0.1-0.1-0.1-0.1-0.1-0.2c0-0.1,0-0.1,0.1-0.2c0.1,0,0.2-0.1,0.3-0.1
				c0.1,0,0.2,0,0.3,0.1l0.6,0.4l2.8-1.6c0.2-0.1,0.2-0.2,0.2-0.3c0-0.1-0.1-0.3-0.3-0.4c0,0,0,0,0,0c-0.1-0.1-0.1-0.1-0.1-0.2
				c0-0.1,0-0.1,0.1-0.2c0.1,0,0.2-0.1,0.3-0.1c0.1,0,0.2,0,0.3,0.1l0,0l0,0c0.4,0.2,0.5,0.4,0.6,0.7c0,0.3-0.1,0.5-0.4,0.7
				l-2.8,1.6l0.6,0.4c0.1,0.1,0.1,0.1,0.1,0.2c0,0.1,0,0.1-0.1,0.2c-0.1,0-0.2,0.1-0.3,0.1C137.8,408.6,137.7,408.6,137.6,408.6z"/>
			<path class="st17" d="M146.6,413.7l-1.9-1.1c-0.1,0-0.1-0.1-0.1-0.2c0-0.1,0-0.1,0.1-0.2c0.1,0,0.2-0.1,0.3-0.1
				c0.1,0,0.2,0,0.3,0.1l0.6,0.4l2.8-1.6c0.2-0.1,0.2-0.2,0.2-0.3c0-0.1-0.1-0.2-0.3-0.4c0,0,0,0,0,0c-0.1-0.1-0.1-0.1-0.1-0.2
				s0-0.1,0.1-0.2c0.1,0,0.2-0.1,0.3-0.1c0.1,0,0.2,0,0.3,0.1l0,0l0,0c0.4,0.2,0.5,0.4,0.6,0.7c0,0.3-0.1,0.5-0.4,0.7l-2.8,1.6
				l0.6,0.4c0.1,0.1,0.1,0.1,0.1,0.2c0,0.1,0,0.1-0.1,0.2c-0.1,0-0.2,0.1-0.3,0.1C146.7,413.8,146.6,413.8,146.6,413.7z"/>
			<path class="st17" d="M152.4,415.2l-1.3-0.7c-0.2-0.1-0.4-0.2-0.6-0.2c-0.2,0-0.4,0-0.6,0.1l-0.4,0.2c0,0-0.1,0-0.1,0.1
				c0,0,0,0.1,0.1,0.1l2.7,1.6c0.1,0.1,0.1,0.1,0.1,0.2c0,0.1,0,0.1-0.1,0.2c-0.1,0-0.2,0.1-0.3,0.1c-0.1,0-0.2,0-0.3-0.1l-3.2-1.8
				c-0.1,0-0.1-0.1-0.1-0.2c0-0.1,0-0.1,0.1-0.2l0.8-0.5c0.3-0.2,0.7-0.3,1.2-0.2c0.5,0,0.9,0.1,1.2,0.3l1.3,0.7
				c0.2,0.1,0.4,0.2,0.6,0.2c0.2,0,0.4,0,0.6-0.1l0.6-0.3c0.2-0.1,0.2-0.2,0.2-0.3c0-0.1-0.1-0.3-0.3-0.4l-1.3-0.7
				c-0.2-0.1-0.4-0.2-0.6-0.2c-0.2,0-0.4,0-0.6,0.1c-0.1,0-0.2,0.1-0.3,0.1c-0.1,0-0.2,0-0.3-0.1c-0.1-0.1-0.1-0.1-0.1-0.2
				c0-0.1,0-0.1,0.1-0.2c0.3-0.2,0.7-0.3,1.2-0.2c0.5,0,0.9,0.1,1.2,0.3l1.3,0.7c0.4,0.2,0.6,0.4,0.6,0.7c0,0.3-0.1,0.5-0.4,0.7
				l-0.6,0.3c-0.3,0.2-0.7,0.3-1.2,0.2C153.1,415.5,152.7,415.4,152.4,415.2z"/>
			<path class="st17" d="M155.5,418.9l-1.9-1.1c-0.1,0-0.1-0.1-0.1-0.2c0-0.1,0-0.1,0.1-0.2c0.1,0,0.2-0.1,0.3-0.1
				c0.1,0,0.2,0,0.3,0.1l0.6,0.4l2.8-1.6c0.2-0.1,0.2-0.2,0.2-0.3c0-0.1-0.1-0.3-0.3-0.4c0,0,0,0,0,0c-0.1-0.1-0.1-0.1-0.1-0.2
				c0-0.1,0-0.1,0.1-0.2c0.1,0,0.2-0.1,0.3-0.1c0.1,0,0.2,0,0.3,0.1l0,0l0,0c0.4,0.2,0.5,0.4,0.6,0.7c0,0.3-0.1,0.5-0.4,0.7
				l-2.8,1.6l0.6,0.4c0.1,0.1,0.1,0.1,0.1,0.2c0,0.1,0,0.1-0.1,0.2c-0.1,0-0.2,0.1-0.3,0.1C155.7,419,155.6,418.9,155.5,418.9z"/>
			<path class="st17" d="M162.3,421.2l-0.3,0.2c-0.3,0.2-0.7,0.3-1.2,0.2c-0.5,0-0.9-0.1-1.2-0.3l-1.3-0.7c-0.4-0.2-0.5-0.4-0.6-0.7
				c0-0.3,0.1-0.5,0.4-0.7c0.1,0,0.2-0.1,0.3-0.1c0.1,0,0.2,0,0.3,0.1c0.1,0.1,0.1,0.1,0.1,0.2c0,0.1,0,0.1-0.1,0.2
				c-0.2,0.1-0.2,0.2-0.2,0.3c0,0.1,0.1,0.3,0.3,0.4l1.3,0.7c0.2,0.1,0.4,0.2,0.6,0.2c0.2,0,0.4,0,0.6-0.1l0.3-0.2
				c0.2-0.1,0.2-0.2,0.2-0.3s-0.1-0.3-0.3-0.4l-0.3-0.2c-0.1-0.1-0.1-0.1-0.1-0.2c0-0.1,0-0.1,0.1-0.2c0.1,0,0.2-0.1,0.3-0.1
				c0.1,0,0.2,0,0.3,0.1l0.3,0.2c0.2,0.1,0.4,0.2,0.6,0.2c0.2,0,0.4,0,0.6-0.1l0.3-0.2c0.2-0.1,0.2-0.2,0.2-0.3
				c0-0.1-0.1-0.3-0.3-0.4l-1.3-0.7c-0.2-0.1-0.4-0.2-0.6-0.2c-0.2,0-0.4,0-0.6,0.1c-0.1,0-0.2,0.1-0.3,0.1c-0.1,0-0.2,0-0.3-0.1
				c-0.1-0.1-0.1-0.1-0.1-0.2c0-0.1,0-0.1,0.1-0.2c0.3-0.2,0.7-0.3,1.2-0.2c0.5,0,0.9,0.1,1.2,0.3l1.3,0.7c0.4,0.2,0.5,0.4,0.6,0.7
				c0,0.3-0.1,0.5-0.4,0.7l-0.3,0.2c-0.2,0.1-0.4,0.2-0.6,0.2c-0.2,0-0.5,0-0.7,0c0,0.1,0,0.3-0.1,0.4
				C162.6,421,162.5,421.1,162.3,421.2z"/>
		</g>
		<g>
			<g id="XMLID_832_">
				<path class="st17" d="M141.4,421l-1.1-0.6c-0.1,0-0.1-0.1-0.1-0.1c0,0,0-0.1,0.1-0.1c0,0,0.1,0,0.2,0c0.1,0,0.1,0,0.2,0l0.4,0.2
					l1.6-0.9c0.1-0.1,0.1-0.1,0.1-0.2c0-0.1-0.1-0.1-0.2-0.2c0,0,0,0,0,0c-0.1,0-0.1-0.1-0.1-0.1c0,0,0-0.1,0.1-0.1c0,0,0.1,0,0.2,0
					c0.1,0,0.1,0,0.2,0l0,0l0,0c0.2,0.1,0.3,0.3,0.3,0.4c0,0.2-0.1,0.3-0.2,0.4l-1.6,0.9l0.4,0.2c0.1,0,0.1,0.1,0.1,0.1
					c0,0,0,0.1-0.1,0.1c0,0-0.1,0-0.2,0C141.5,421.1,141.5,421,141.4,421z"/>
				<path class="st17" d="M144.8,421.9l-0.7-0.4c-0.1-0.1-0.2-0.1-0.4-0.1c-0.1,0-0.2,0-0.3,0.1l-0.2,0.1c0,0,0,0,0,0c0,0,0,0,0,0.1
					l1.6,0.9c0.1,0,0.1,0.1,0.1,0.1c0,0,0,0.1-0.1,0.1c0,0-0.1,0-0.2,0c-0.1,0-0.1,0-0.2,0l-1.9-1.1c-0.1,0-0.1-0.1-0.1-0.1
					c0,0,0-0.1,0.1-0.1l0.5-0.3c0.2-0.1,0.4-0.1,0.7-0.1c0.3,0,0.5,0.1,0.7,0.2l0.7,0.4c0.1,0.1,0.2,0.1,0.4,0.1
					c0.1,0,0.2,0,0.3-0.1l0.3-0.2c0.1-0.1,0.1-0.1,0.1-0.2c0-0.1-0.1-0.1-0.2-0.2l-0.7-0.4c-0.1-0.1-0.2-0.1-0.4-0.1
					c-0.1,0-0.2,0-0.3,0.1c0,0-0.1,0-0.2,0c-0.1,0-0.1,0-0.2,0c-0.1,0-0.1-0.1-0.1-0.1c0,0,0-0.1,0.1-0.1c0.2-0.1,0.4-0.1,0.7-0.1
					c0.3,0,0.5,0.1,0.7,0.2l0.7,0.4c0.2,0.1,0.3,0.3,0.3,0.4c0,0.2-0.1,0.3-0.2,0.4l-0.3,0.2c-0.2,0.1-0.4,0.1-0.7,0.1
					C145.3,422,145,422,144.8,421.9z"/>
				<path class="st17" d="M149.3,424.4l-0.7-0.4c-0.1-0.1-0.2-0.1-0.4-0.1c-0.1,0-0.2,0-0.3,0.1l-0.2,0.1c0,0,0,0,0,0c0,0,0,0,0,0.1
					l1.6,0.9c0.1,0,0.1,0.1,0.1,0.1c0,0,0,0.1-0.1,0.1c0,0-0.1,0-0.2,0c-0.1,0-0.1,0-0.2,0l-1.9-1.1c-0.1,0-0.1-0.1-0.1-0.1
					c0,0,0-0.1,0.1-0.1l0.5-0.3c0.2-0.1,0.4-0.1,0.7-0.1c0.3,0,0.5,0.1,0.7,0.2l0.7,0.4c0.1,0.1,0.2,0.1,0.4,0.1
					c0.1,0,0.2,0,0.3-0.1l0.3-0.2c0.1-0.1,0.1-0.1,0.1-0.2c0-0.1-0.1-0.1-0.2-0.2l-0.7-0.4c-0.1-0.1-0.2-0.1-0.4-0.1
					c-0.1,0-0.2,0-0.3,0.1c0,0-0.1,0-0.2,0c-0.1,0-0.1,0-0.2,0c-0.1,0-0.1-0.1-0.1-0.1c0,0,0-0.1,0.1-0.1c0.2-0.1,0.4-0.1,0.7-0.1
					c0.3,0,0.5,0.1,0.7,0.2l0.7,0.4c0.2,0.1,0.3,0.3,0.3,0.4c0,0.2-0.1,0.3-0.2,0.4l-0.3,0.2c-0.2,0.1-0.4,0.1-0.7,0.1
					C149.7,424.6,149.5,424.6,149.3,424.4z"/>
				<path class="st17" d="M152.8,426.7l-0.2,0.1c-0.2,0.1-0.4,0.1-0.7,0.1c-0.3,0-0.5-0.1-0.7-0.2l-0.7-0.4
					c-0.2-0.1-0.3-0.3-0.3-0.4c0-0.2,0.1-0.3,0.2-0.4c0,0,0.1,0,0.2,0c0.1,0,0.1,0,0.2,0c0.1,0,0.1,0.1,0.1,0.1c0,0,0,0.1-0.1,0.1
					c-0.1,0.1-0.1,0.1-0.1,0.2c0,0.1,0.1,0.1,0.2,0.2l0.7,0.4c0.1,0.1,0.2,0.1,0.4,0.1c0.1,0,0.2,0,0.3-0.1l0.2-0.1
					c0.1-0.1,0.1-0.1,0.1-0.2c0-0.1-0.1-0.1-0.2-0.2l-0.2-0.1c-0.1,0-0.1-0.1-0.1-0.1c0,0,0-0.1,0.1-0.1s0.1,0,0.2,0
					c0.1,0,0.1,0,0.2,0l0.2,0.1c0.1,0.1,0.2,0.1,0.4,0.1c0.1,0,0.2,0,0.3-0.1l0.2-0.1c0.1-0.1,0.1-0.1,0.1-0.2
					c0-0.1-0.1-0.1-0.2-0.2l-0.7-0.4c-0.1-0.1-0.2-0.1-0.4-0.1c-0.1,0-0.2,0-0.3,0.1c0,0-0.1,0-0.2,0c-0.1,0-0.1,0-0.2,0
					c-0.1,0-0.1-0.1-0.1-0.1c0,0,0-0.1,0.1-0.1c0.2-0.1,0.4-0.1,0.7-0.1c0.3,0,0.5,0.1,0.7,0.2l0.7,0.4c0.2,0.1,0.3,0.3,0.3,0.4
					c0,0.2-0.1,0.3-0.2,0.4l-0.2,0.1c-0.1,0.1-0.2,0.1-0.3,0.1c-0.1,0-0.3,0-0.4,0c0,0.1,0,0.2,0,0.2
					C153,426.6,152.9,426.6,152.8,426.7z"/>
			</g>
			<g id="XMLID_831_">
				<path class="st17" d="M145.1,423.6C145,423.6,145,423.6,145.1,423.6c0-0.1,0-0.2,0.1-0.2l3.2-1.3c0.1,0,0.1,0,0.2,0.1
					c0,0.1,0,0.1-0.1,0.2l-3.2,1.3C145.1,423.6,145.1,423.6,145.1,423.6z"/>
			</g>
		</g>
		<g id="XMLID_687_">
			<defs>
				<path id="XMLID_820_" d="M183.8,408.5l-10.8,6.3c-0.8,0.5-2.1,0.5-2.9,0l-13.2-7.5c-0.8-0.5-0.8-1.2,0-1.7l10.8-6.3
					c0.8-0.5,2.1-0.5,2.9,0c3.6,2.1,9.6,5.5,13.2,7.5C184.7,407.3,184.7,408,183.8,408.5z"/>
			</defs>
			<use xlink:href="#XMLID_820_"  style="overflow:visible;fill:#27DEBF;"/>
			<clipPath id="XMLID_2_">
				<use xlink:href="#XMLID_820_"  style="overflow:visible;"/>
			</clipPath>
			<path id="XMLID_830_" class="st18" d="M183.8,408.5l-10.8,6.3c-0.8,0.5-2.1,0.5-2.9,0l-13.2-7.5c-0.8-0.5-0.8-1.2,0-1.7l10.8-6.3
				c0.8-0.5,2.1-0.5,2.9,0c3.6,2.1,9.6,5.5,13.2,7.5C184.7,407.3,184.7,408,183.8,408.5z"/>
			<g id="XMLID_828_" class="st19">
				<polygon id="XMLID_829_" class="st4" points="183.4,411.7 184.4,411.5 162.8,399.1 161.8,399.3 				"/>
			</g>
			<g id="XMLID_826_" class="st19">
				<polygon id="XMLID_827_" class="st4" points="169.6,410 170.6,410.2 176.2,407 175.2,406.8 				"/>
			</g>
			<g id="XMLID_823_" class="st19">
				<polygon id="XMLID_825_" class="st4" points="164.5,407.1 165.5,407.3 171,404.1 170,403.9 				"/>
			</g>
			<g id="XMLID_821_" class="st19">
				<polygon id="XMLID_822_" class="st4" points="177.9,414.9 178.9,414.7 157.2,402.3 156.2,402.5 				"/>
			</g>
		</g>
		<g>
			<g>
				<path id="XMLID_686_" class="st2" d="M114.7,407.2l-51.8-29.9c-0.9-0.5-2.4-0.5-3.3,0l-0.2,0.1c-0.9,0.5-0.9,1.4,0,1.9
					l51.8,29.9c0.9,0.5,2.4,0.5,3.3,0l0.2-0.1C115.6,408.5,115.6,407.7,114.7,407.2z"/>
			</g>
		</g>
		<g>
			<path class="st4" d="M109.9,349.8c0.1,0,0.2-0.1,0.3-0.1c0.1,0,0.2,0,0.3,0.1l0.8,0.5c0.1,0,0.1,0.1,0.1,0.2c0,0.1,0,0.1-0.1,0.2
				c-0.3,0.1-0.6,0.3-1,0.4c-0.4,0.1-0.8,0.1-1.3,0.1c-0.5,0-1-0.1-1.5-0.2c-0.5-0.1-1-0.3-1.6-0.7c-0.5-0.3-0.8-0.5-1-0.8
				c-0.2-0.3-0.3-0.6-0.3-0.9c0-0.3,0.1-0.6,0.3-0.8c0.2-0.3,0.5-0.5,0.9-0.8c0.2-0.2,0.5-0.3,0.8-0.5c0.3-0.2,0.6-0.3,0.9-0.5
				c0.4-0.2,0.9-0.4,1.4-0.5c0.5-0.1,1-0.2,1.5-0.2c0.5,0,1,0.1,1.5,0.2c0.5,0.1,1,0.3,1.4,0.6c0.5,0.3,0.9,0.6,1.1,0.9
				c0.2,0.3,0.4,0.6,0.4,0.8c0,0.3,0,0.5-0.2,0.7c-0.2,0.2-0.4,0.4-0.6,0.6c-0.1,0-0.2,0.1-0.3,0.1c-0.1,0-0.2,0-0.3-0.1l-0.8-0.5
				c-0.1,0-0.1-0.1-0.1-0.1c0-0.1,0-0.1,0.1-0.2c0.1-0.1,0.2-0.2,0.3-0.3c0.1-0.1,0.1-0.2,0-0.4c0-0.1-0.1-0.3-0.2-0.4
				c-0.1-0.1-0.3-0.3-0.6-0.5c-0.3-0.2-0.5-0.3-0.8-0.3c-0.3-0.1-0.5-0.1-0.8-0.1c-0.3,0-0.5,0-0.8,0.1c-0.3,0.1-0.5,0.2-0.7,0.3
				c-0.3,0.1-0.6,0.3-0.9,0.5c-0.3,0.2-0.6,0.3-0.8,0.5c-0.2,0.1-0.4,0.3-0.5,0.4c-0.1,0.1-0.2,0.3-0.2,0.5c0,0.2,0.1,0.3,0.2,0.5
				c0.1,0.2,0.3,0.3,0.6,0.5c0.3,0.2,0.5,0.3,0.8,0.3c0.3,0.1,0.5,0.1,0.7,0.1c0.2,0,0.4,0,0.7,0
				C109.5,349.9,109.7,349.8,109.9,349.8z"/>
			<path class="st4" d="M120.1,350.1c0.8,0.5,1.3,1,1.3,1.4c0,0.5-0.3,0.9-1,1.3c-0.5,0.3-1,0.5-1.6,0.5c-0.6,0.1-1.2,0-1.8-0.1
				l-1.1,2.2c0,0,0,0.1-0.1,0.1c-0.1,0-0.1,0.1-0.2,0.1c-0.1,0-0.2,0-0.2-0.1l-0.9-0.5c-0.1-0.1-0.2-0.2-0.2-0.2c0-0.1,0-0.1,0-0.2
				l1-2.1l-1.3-0.8l-2.4,1.4c-0.1,0-0.2,0.1-0.3,0.1c-0.1,0-0.2,0-0.3-0.1l-0.8-0.5c-0.1,0-0.1-0.1-0.1-0.2c0-0.1,0-0.1,0.1-0.2
				l6.5-3.8c0.1,0,0.2-0.1,0.3-0.1c0.1,0,0.2,0,0.3,0.1L120.1,350.1z M115.5,351.1l1.5,0.8c0.4,0.2,0.8,0.4,1.1,0.4
				c0.4,0.1,0.7,0,1.1-0.2c0.4-0.2,0.5-0.4,0.4-0.6c-0.1-0.2-0.3-0.4-0.7-0.6l-1.5-0.8L115.5,351.1z"/>
			<path class="st4" d="M122.9,358.4c0.1,0,0.1,0.1,0.1,0.2c0,0.1,0,0.1-0.1,0.2l-0.7,0.4c-0.1,0-0.2,0.1-0.3,0.1
				c-0.1,0-0.2,0-0.3-0.1l-4.4-2.6c-0.1,0-0.1-0.1-0.1-0.2c0-0.1,0-0.1,0.1-0.2l6.5-3.8c0.1,0,0.2-0.1,0.3-0.1c0.1,0,0.2,0,0.3,0.1
				l4.3,2.5c0.1,0,0.1,0.1,0.1,0.2c0,0.1,0,0.1-0.1,0.2l-0.7,0.4c-0.1,0-0.2,0.1-0.3,0.1s-0.2,0-0.3-0.1l-3.3-1.9l-1.6,0.9l3,1.8
				c0.1,0,0.1,0.1,0.1,0.2c0,0.1,0,0.1-0.1,0.2l-0.7,0.4c-0.1,0-0.2,0.1-0.3,0.1s-0.2,0-0.3-0.1l-3-1.8l-1.7,1L122.9,358.4z"/>
			<path class="st4" d="M133,357.6c0.5,0.3,0.9,0.6,1.1,0.9c0.2,0.3,0.4,0.6,0.4,0.9c0,0.3-0.1,0.6-0.3,0.8
				c-0.2,0.3-0.5,0.5-0.9,0.8c-0.5,0.3-1,0.6-1.5,0.9c-0.5,0.2-0.9,0.4-1.4,0.5c-0.5,0.1-1,0.2-1.4,0.2c-0.5,0-1-0.1-1.5-0.2
				c-0.5-0.1-1-0.3-1.5-0.6l-2.5-1.5c-0.1,0-0.1-0.1-0.1-0.2c0-0.1,0-0.1,0.1-0.2l6.5-3.8c0.1,0,0.2-0.1,0.3-0.1
				c0.1,0,0.2,0,0.3,0.1L133,357.6z M131.9,360.1c0.2-0.1,0.4-0.3,0.5-0.4c0.1-0.1,0.2-0.3,0.2-0.5s-0.1-0.3-0.2-0.5
				c-0.1-0.2-0.3-0.3-0.6-0.5l-1.4-0.8l-4.5,2.6l1.4,0.8c0.3,0.2,0.6,0.3,0.8,0.3c0.3,0.1,0.6,0.1,0.8,0.1c0.3,0,0.5,0,0.8-0.1
				c0.3-0.1,0.5-0.2,0.7-0.3C130.9,360.7,131.4,360.4,131.9,360.1z"/>
			<path class="st4" d="M130.6,364.3c-0.1,0-0.1-0.1-0.1-0.2c0-0.1,0-0.1,0.1-0.2l6.5-3.8c0.1,0,0.2-0.1,0.3-0.1
				c0.1,0,0.2,0,0.3,0.1l0.8,0.5c0.1,0,0.1,0.1,0.1,0.2c0,0.1,0,0.1-0.1,0.2l-6.5,3.8c-0.1,0-0.2,0.1-0.3,0.1c-0.1,0-0.2,0-0.3-0.1
				L130.6,364.3z"/>
			<path class="st4" d="M145,364.5c0.1,0,0.1,0.1,0.1,0.2c0,0.1,0,0.1-0.1,0.2l-0.7,0.4c-0.1,0-0.2,0.1-0.3,0.1
				c-0.1,0-0.2,0-0.3-0.1l-1.8-1l-5.5,3.2c-0.1,0-0.2,0.1-0.3,0.1c-0.1,0-0.2,0-0.3-0.1l-0.8-0.5c-0.1,0-0.1-0.1-0.1-0.2
				c0-0.1,0-0.1,0.1-0.2l5.5-3.2l-1.8-1c-0.1,0-0.1-0.1-0.1-0.2c0-0.1,0-0.1,0.1-0.2l0.7-0.4c0.1,0,0.2-0.1,0.3-0.1
				c0.1,0,0.2,0,0.3,0.1L145,364.5z"/>
			<path class="st4" d="M147.8,371.7c0.1,0,0.2-0.1,0.3-0.1c0.1,0,0.2,0,0.3,0.1l0.8,0.5c0.1,0,0.1,0.1,0.1,0.2c0,0.1,0,0.1-0.1,0.2
				c-0.3,0.1-0.6,0.3-1,0.4c-0.4,0.1-0.8,0.1-1.3,0.1c-0.5,0-1-0.1-1.5-0.2c-0.5-0.1-1-0.3-1.6-0.7c-0.5-0.3-0.8-0.5-1-0.8
				c-0.2-0.3-0.3-0.6-0.3-0.9c0-0.3,0.1-0.6,0.3-0.8c0.2-0.3,0.5-0.5,0.9-0.8c0.2-0.2,0.5-0.3,0.8-0.5c0.3-0.2,0.6-0.3,0.9-0.5
				c0.4-0.2,0.9-0.4,1.4-0.5c0.5-0.1,1-0.2,1.5-0.2c0.5,0,1,0.1,1.5,0.2c0.5,0.1,1,0.3,1.4,0.6c0.5,0.3,0.9,0.6,1.1,0.9
				c0.2,0.3,0.4,0.6,0.4,0.8c0,0.3-0.1,0.5-0.2,0.7c-0.2,0.2-0.4,0.4-0.6,0.6c-0.1,0.1-0.2,0.1-0.3,0.1c-0.1,0-0.2,0-0.3-0.1
				l-0.8-0.5c-0.1,0-0.1-0.1-0.1-0.1c0-0.1,0-0.1,0.1-0.2c0.1-0.1,0.2-0.2,0.3-0.3c0.1-0.1,0.1-0.2,0-0.4c0-0.1-0.1-0.3-0.2-0.4
				c-0.1-0.1-0.3-0.3-0.6-0.5c-0.3-0.2-0.5-0.3-0.8-0.3c-0.3-0.1-0.5-0.1-0.8-0.1c-0.3,0-0.5,0-0.8,0.1c-0.3,0.1-0.5,0.2-0.7,0.3
				c-0.3,0.1-0.6,0.3-0.9,0.5c-0.3,0.2-0.6,0.3-0.8,0.5c-0.2,0.1-0.4,0.3-0.5,0.4c-0.1,0.1-0.2,0.3-0.2,0.5c0,0.2,0.1,0.3,0.2,0.5
				c0.1,0.2,0.3,0.3,0.6,0.5c0.3,0.2,0.5,0.3,0.8,0.3c0.3,0.1,0.5,0.1,0.7,0.1c0.2,0,0.4,0,0.7,0
				C147.5,371.8,147.7,371.8,147.8,371.7z"/>
			<path class="st4" d="M158.5,372.3c0.1,0.1,0.2,0.1,0.2,0.2c0,0.1,0,0.1-0.1,0.2l-3.9,5.1c0,0,0,0-0.1,0c-0.1,0-0.2,0.1-0.3,0.1
				c-0.1,0-0.2,0-0.3-0.1l-0.7-0.4c-0.1-0.1-0.2-0.1-0.2-0.2c0-0.1,0-0.1,0.1-0.2l0.7-0.9l-3.2-1.8l-1.6,0.4c-0.1,0-0.2,0-0.3,0
				c-0.1,0-0.2,0-0.4-0.1l-0.7-0.4c-0.1,0-0.1-0.1-0.1-0.2c0-0.1,0-0.1,0.1-0.2c0,0,0.1,0,0.1,0l8.9-2.3c0.2,0,0.3-0.1,0.4-0.1
				c0.1,0,0.2,0,0.3,0.1L158.5,372.3z M154.6,375.1l1.8-2.3l-4,1L154.6,375.1z"/>
			<path class="st4" d="M165.1,376.1c0.8,0.5,1.3,1,1.3,1.4c0,0.5-0.3,0.9-1,1.3c-0.5,0.3-1,0.5-1.6,0.5c-0.6,0.1-1.2,0-1.8-0.1
				l-1.1,2.2c0,0,0,0.1-0.1,0.1c-0.1,0-0.1,0.1-0.2,0.1c-0.1,0-0.2,0-0.2-0.1l-0.9-0.5c-0.1-0.1-0.2-0.2-0.2-0.2c0-0.1,0-0.1,0-0.2
				l1-2.1l-1.3-0.8l-2.4,1.4c-0.1,0-0.2,0.1-0.3,0.1c-0.1,0-0.2,0-0.3-0.1l-0.8-0.5c-0.1,0-0.1-0.1-0.1-0.2c0-0.1,0-0.1,0.1-0.2
				l6.5-3.8c0.1,0,0.2-0.1,0.3-0.1c0.1,0,0.2,0,0.3,0.1L165.1,376.1z M160.4,377.1l1.5,0.8c0.4,0.2,0.8,0.4,1.1,0.4
				c0.4,0.1,0.7,0,1.1-0.2c0.4-0.2,0.5-0.4,0.4-0.6c-0.1-0.2-0.3-0.4-0.7-0.6l-1.5-0.8L160.4,377.1z"/>
			<path class="st4" d="M171.9,380c0.5,0.3,0.9,0.6,1.1,0.9c0.2,0.3,0.4,0.6,0.4,0.9c0,0.3-0.1,0.6-0.3,0.8
				c-0.2,0.3-0.5,0.5-0.9,0.8c-0.5,0.3-1,0.6-1.5,0.9c-0.4,0.2-0.9,0.4-1.4,0.5c-0.5,0.1-1,0.2-1.4,0.2c-0.5,0-1-0.1-1.5-0.2
				c-0.5-0.1-1-0.3-1.5-0.6l-2.5-1.5c-0.1,0-0.1-0.1-0.1-0.2c0-0.1,0-0.1,0.1-0.2l6.5-3.8c0.1,0,0.2-0.1,0.3-0.1
				c0.1,0,0.2,0,0.3,0.1L171.9,380z M170.8,382.6c0.2-0.1,0.4-0.3,0.5-0.4c0.1-0.1,0.2-0.3,0.2-0.5s-0.1-0.3-0.2-0.5
				c-0.1-0.2-0.3-0.3-0.6-0.5l-1.4-0.8l-4.5,2.6l1.4,0.8c0.3,0.2,0.6,0.3,0.8,0.3c0.3,0.1,0.6,0.1,0.8,0.1c0.3,0,0.5,0,0.8-0.1
				c0.3-0.1,0.5-0.2,0.7-0.3C169.8,383.2,170.3,382.9,170.8,382.6z"/>
		</g>
	</g>
</g>
<g id="Character">
	<g id="Character_9_">
		<g>
			<path class="st20" d="M387.2,122.1c-2.9,6.3-7.9,16.6-10.6,22.4l-10.7-12.6h-9c0,0,10.8,23,17.2,28.4c2.4,2,5.5,1.8,7.4-0.4
				s4.3-5.5,7.2-10c5.1-7.9,7.4-11.3,7.4-11.3l6.4-27C397,111.1,391.3,113.4,387.2,122.1z"/>
			<path class="st4" d="M403.7,111.5c-3.4-0.1-7.2-0.6-10.4,2.3c-2.2,1.9-4.9,4.8-7.1,10c-2.2,5.2-5.6,11.8-5.6,11.8
				s2.4,3.7,6.4,6.7c4,3,7.7,3.2,7.7,3.2L403.7,111.5z"/>
			<path class="st21" d="M403.7,111.5c-3.4-0.1-7.2-0.6-10.4,2.3c-2.2,1.9-4.9,4.8-7.1,10c-2.2,5.2-5.6,11.8-5.6,11.8
				s2.4,3.7,6.4,6.7c4,3,7.7,3.2,7.7,3.2L403.7,111.5z"/>
			<path class="st22" d="M376.6,144.5c0,0,2.6,3.1,3.3,4.5c0,0-1.1-4.2-2.7-5.7L376.6,144.5z"/>
			<g id="XMLID_844_">
				<g id="XMLID_855_">
					<path id="XMLID_870_" class="st2" d="M354.3,115.2L354.3,115.2l0.8-0.9l0,0c0.2-0.2,0.5-0.3,0.9-0.2l10.3,1.8
						c1,0.2,2.1,1,2.5,1.9l9.3,20.2c0.2,0.5,0.2,0.8,0,1.1l0,0l-0.9,0.9l0,0c-0.2,0.2-0.5,0.3-1,0.2l-10.3-1.8c-1-0.2-2.1-1-2.5-1.9
						c-1.8-4-7.5-16.2-9.3-20.2C354,115.8,354,115.4,354.3,115.2z"/>
					<path id="XMLID_869_" class="st5" d="M377.3,138.8l-9.3-20.2c-0.4-0.9-1.5-1.7-2.5-1.9l-10.3-1.8c-1-0.2-1.4,0.4-1,1.3
						c1.8,4,7.5,16.2,9.3,20.2c0.4,0.9,1.5,1.7,2.5,1.9l10.3,1.8C377.3,140.3,377.7,139.7,377.3,138.8z"/>
					<path id="XMLID_868_" class="st3" d="M366.7,117.2c0.6,0.4,1.1,0.9,1.3,1.4l9.3,20.2c0.2,0.5,0.2,0.8,0,1.1l0.8-0.9l0,0
						c0.2-0.2,0.2-0.6,0-1.1l-9.3-20.2c-0.2-0.5-0.7-1-1.2-1.3L366.7,117.2z"/>
				</g>
			</g>
			<path id="XMLID_623_" class="st20" d="M359.2,135.2c-4.3-4.9-4.2-11.1-2.2-12.8l1.3,2.8c0,0,6.5,1.5,9.7,1.2
				c3.1-0.2,5.7-1,6.6-0.4c1.8,1.3,2.4,6.8-2.9,8.8C367.2,136.5,359.2,135.2,359.2,135.2z"/>
		</g>
		<g id="Botom_5_">
			<g id="XMLID_925_">
				<g id="XMLID_926_">
					<path id="XMLID_26_" class="st20" d="M434.4,296.5c-2.8,1.5-6.1,1.4-9.4,0l-1.4-17.9l10.8,1.4L434.4,296.5z"/>
					<path id="XMLID_25_" class="st20" d="M401.3,285.8c-2.3,5-6.5,3.6-11.3,0.4l0.8-18h11.5L401.3,285.8z"/>
					<g>
						<path id="XMLID_24_" class="st5" d="M414.2,313.5c-0.3,0.3-0.2,2.2,0.1,2.8c0.4,0.6,2.4,2.3,6.2,2.6c3.6,0.3,6.8-0.2,8.9-1.6
							c2.1-1.3,3.1-2.8,3.3-4.8c0.2-2,0-4,0.9-5.6c0.9-1.4,2.3-3.1,2.6-3.9c0.7-1.7,0-4.1,0-4.1L414.2,313.5z"/>
						<path id="XMLID_23_" class="st3" d="M424,295.7c-0.1,0.8-0.2,1.5-0.4,2.3c-0.5,1.6-1.3,3.1-2.2,4.5c-0.5,0.7-0.9,1.4-1.5,2.1
							c-1.1,1.3-2.4,2.3-3.6,3.6c-1.1,1.2-2.1,2.7-2.2,4.4c-0.2,2.8,2.9,3.8,5.2,4.2c2.5,0.4,5.2,0.3,7.6-0.4
							c2.7-0.8,4.7-2.9,5.1-5.6c0.1-0.8,0.1-1.6,0.2-2.4c0.2-1.8,1.1-3.4,2.2-4.9c0.6-0.9,1.3-1.7,1.7-2.7c0.7-1.7,0.1-3.7-0.3-5.4
							c-0.4-1.5-0.9-3.2-1.4-3c0,0.3,0,0.6-0.1,0.9c-0.2,0.3-0.3,0.5-0.4,0.9c-0.1,0.4-0.2,0.8-0.4,1.2c-0.3,0.6-0.7,1.1-1.2,1.4
							c0-1.1-0.1-2.1-0.1-3.2c0-0.3,0-0.7-0.2-0.9c-0.2-0.3-0.6-0.3-0.9-0.4c-2-0.4-4-0.7-6-0.5c-0.3,0-0.6,0.1-0.8,0.4
							c-0.1,0.2-0.1,0.5-0.1,0.7C424.1,293.8,424.1,294.7,424,295.7z"/>
						<path id="XMLID_22_" class="st0" d="M421,303c1-0.8,3.4-0.8,4.7-0.7c1.6,0.2,2.9,0.7,3.6,1.3c0.3,0.2,0.8,0.2,1.1-0.1l0,0
							c0.3-0.3,0.3-0.9-0.1-1.2c-0.8-0.6-2.2-1.4-4.1-1.5c-3.1-0.2-4.1,0.3-4.1,0.3S420.7,302.1,421,303z"/>
						<path id="XMLID_21_" class="st0" d="M418.6,305.9c1.3-0.8,3.9-0.7,5.2-0.5c1.6,0.2,2.8,0.8,3.5,1.3c0.3,0.2,0.8,0.2,1.1-0.1
							l0,0c0.3-0.3,0.3-0.9-0.1-1.2c-0.8-0.6-2.3-1.5-4.2-1.6c-3.1-0.2-4,0.4-4,0.4S418.8,304.8,418.6,305.9z"/>
						<path id="XMLID_20_" class="st0" d="M427.5,297.9c-2.2-0.2-3.1,0-4,0.3c-0.6,0.3-0.9,1.2-0.6,1.4c0.7-0.4,2-0.5,3.5-0.5
							c1,0,2.3,0.5,3.4,0.9c0.3,0.1,0.6,0.3,0.9,0.4c0.4,0.2,0.9,0.1,1-0.3l0,0c0.2-0.3,0-0.7-0.3-0.9
							C430.7,298.8,429.2,298,427.5,297.9z"/>
					</g>
					<g>
						<path id="XMLID_19_" class="st5" d="M371.3,297.3c-0.3,0.6-0.2,1.8,0.1,2.5c0.3,0.7,4.2,2.9,9.3,2.5c5.1-0.3,8.7-2.4,10.6-3.7
							c2-1.3,4-1.5,6.5-1.7c2.5-0.1,5.9-1.4,6.4-2.6c0.6-1.2-0.1-3.2-0.1-3.2L371.3,297.3z"/>
						<path id="XMLID_18_" class="st3" d="M391.9,281.5c-0.4-0.2-0.9-0.3-1.3-0.5c-0.2-0.1-0.5-0.2-0.8-0.1
							c-0.3,0.1-0.5,0.5-0.5,0.9c-0.2,0.7-0.3,1.6-0.6,2.2c-0.3,0.6-1,1.1-1.4,1.5c-1.2,1.1-2.7,1.9-4.1,2.7
							c-1.7,0.9-3.3,1.6-5.1,2.4c-1.8,0.8-4.1,1.3-5.5,2.2c-2,1.4-2.3,4.8,0,6.1c2,1.2,7.2,2.4,12.7,0.9c3-0.8,6.3-4,10.2-4.3
							c2.5-0.2,7.2-0.9,8.8-2.8c0.6-0.8-0.2-3.5-0.8-5.8c-0.7-2.5-1-6.4-1.8-6.2c-0.1,0.8-0.8,1.3-1.2,2c-0.4,0.6-0.6,1.3-0.9,2
							c-0.3,0.7-0.7,1.3-1.3,1.7c-0.6,0.4-1.5,0.4-2-0.1c-0.7-0.8-0.3-2.1-0.8-3c-0.4-0.6-1.1-0.9-1.8-1.1
							C393.1,281.9,392.5,281.7,391.9,281.5z"/>
						<path id="XMLID_17_" class="st0" d="M385.5,286.8c0,0,0.4-1,1.8-1.2c1.1-0.2,3.1,0.6,4.4,1.6c0.5,0.4,0.4,1.2-0.1,1.5l0,0
							c-0.3,0.2-0.8,0.1-1.1-0.1C389.7,288,387.9,286.7,385.5,286.8z"/>
						<path id="XMLID_16_" class="st0" d="M382,288.8c0,0,0.7-1.1,2.2-1.1c0,0,3,0.1,4.8,1.8c0.5,0.4,0.4,1.2-0.1,1.5l0,0
							c-0.3,0.2-0.7,0.1-1-0.1C387,290.1,385.3,288.6,382,288.8z"/>
						<path id="XMLID_15_" class="st0" d="M378.1,290.6c0,0,0.8-1,2.3-1c0,0,2.8,0.1,4.6,1.8c0.5,0.4,0.4,1.2-0.1,1.5l0,0
							c-0.3,0.2-0.7,0.1-1-0.1C383,292,381.5,290.3,378.1,290.6z"/>
					</g>
					<path id="XMLID_14_" class="st3" d="M433,161.6c0.6,19.6,0.6,67,0.6,67c0.2,2.4,1.2,7.4,2,17.2c1.1,12.7-1.2,40.6-1.2,40.6
						s-4.7,2.4-10.2,0.1c0,0-6.1-39.8-8.1-52.4c-1.7-11-5.1-35.8-5.1-35.8l-3.9,32.2c0,0,0.9,7.6-0.4,16.1
						c-0.9,5.8-4.9,29.5-4.9,29.5s-5.3,1.6-11.4-0.4c0,0-0.4-41.2-0.5-46.5c-0.1-6.1,2.7-72.5,2.7-72.5L433,161.6z"/>
					<path class="st5" d="M411,198.4l-2.9-16.1c0,0-8-0.7-12.5-5.2c0,0,0.8,4.4,10.9,7l2.9,16.3l-2.3,30.2L411,198.4z"/>
				</g>
			</g>
		</g>
		<g id="XMLID_904_">
			<path id="XMLID_924_" class="st23" d="M393.7,126.6c0.9-6.3,1.7-14.7,11.4-15.1l12.6,0.6c3.1,0.8,15.1,2.2,15.1,2.2l0.2,27.2
				c0,0,0.8,19.6,0.5,30.1c-9,5.7-28.6,7.5-40.8-1.8C392.4,161.3,392.9,132.8,393.7,126.6z"/>
			<g id="XMLID_905_">
				<g id="XMLID_922_">
					<g>
						<path class="st3" d="M395.4,79.2c-1,1.7-1.5,3.6-1.6,5.7c-0.2,5.1,2.8,9.6,7.1,11.7l-2.3,1.6l22.6,2l-0.3,5.4
							c0,0,1.6-0.4,2.4-1.8c0.8-1.4,3-10.4,3-10.4c2.1-4.9,3.2-9.9,1.6-11.5c-0.7-0.8-1.6-1.1-2.2-1.3l3-1.5c-0.6-1.3-2-1.8-3.3-1.2
							c-0.3,0.1-0.5,0.3-0.7,0.5c0.1-0.3,0.1-0.6,0.2-1c0.1-1-0.1-2-0.7-2.8c-0.4-0.6-1-1-1.6-1.4c-2.5-1.6-5.6-2.2-8.4-3.2
							c-1.6-0.6-3.2-1.3-4.7-1.9c-1.1-0.4-2.2-0.8-3.3-0.6c-1.1,0.2-2.1,1.3-1.9,2.4c-1.5-1.1-3-1.4-4.7-0.7
							c-1.4,0.6-2.5,2.1-2.3,3.7c-1-0.2-2.1-0.2-3.1,0.3c-0.9,0.5-1.6,1.5-1.5,2.5C393,77,394.2,78.2,395.4,79.2z"/>
						<path class="st20" d="M411.3,82.4c2.1-0.2,4.1-0.6,6.2-0.9c0.2,0,0.4-0.1,0.5,0.1c0.1,0.1,0.1,0.2,0.2,0.3
							c1.4,4,1.3,8.2,2.4,12.3c0.1,0.4,0.3,1,0.8,1c0.8,0.1,1.3-0.6,1.7-1.2c0.3-0.5,0.5-0.9,0.8-1.4c0.2-0.3,0.4-0.5,0.6-0.7
							c1-0.9,3.8-2,5.2,1.1c1.4,3.2-1.5,7.2-3.8,7.8c-4,1.1-4.5-1.4-4.5-1.4l-0.8,14.2c-3.5,3.7-15.1,2.4-12.8-0.8l0.2-4.3
							c0,0-3.6,0.4-5.3,0.1c-2.9-0.5-4.6-2.9-5.4-6c-1.2-5.1-1.1-11.3-0.1-19c0.1-1,0.4-1.9,0.7-2.7C401.7,83,406.6,82.9,411.3,82.4
							z"/>
					</g>
					<path id="XMLID_923_" class="st22" d="M407.8,108.4c0,0,6.5-1.1,8.8-2.2c1.5-0.8,2.8-2.1,3.2-3c0,0-0.5,1.9-1.9,3.6
						c-1.7,2.1-10.2,3.3-10.2,3.3L407.8,108.4z"/>
				</g>
				<g id="XMLID_906_">
					<path id="XMLID_921_" class="st5" d="M408.7,92.3c0,0.8,0.6,1.5,1.3,1.5c0.8,0,1.4-0.6,1.4-1.4c0-0.8-0.6-1.5-1.3-1.5
						C409.4,90.9,408.8,91.5,408.7,92.3z"/>
					<path id="XMLID_920_" class="st5" d="M410.7,86.6l2.9,1.3c0.3-0.8-0.1-1.8-0.9-2.1C411.9,85.3,411,85.7,410.7,86.6z"/>
					<path id="XMLID_919_" class="st24" d="M410.4,99.9l-4.6,1.5c0.4,1.3,1.8,2,3,1.6C410.1,102.6,410.8,101.2,410.4,99.9z"/>
					<path class="st22" d="M408.9,103c0.8-0.3,1.4-0.9,1.6-1.7c-0.3-0.1-0.5-0.2-0.8-0.2c-1.1,0-2,0.9-2,2
						C408,103.2,408.4,103.2,408.9,103z"/>
					<path id="XMLID_918_" class="st5" d="M397.2,87.7l2.9-1.1c-0.3-0.8-1.2-1.2-2-0.9C397.3,86,396.9,86.9,397.2,87.7z"/>
					<path id="XMLID_912_" class="st5" d="M398.2,92.3c0,0.8,0.6,1.5,1.3,1.5c0.8,0,1.4-0.6,1.4-1.4c0-0.8-0.6-1.5-1.3-1.5
						C398.9,90.9,398.2,91.5,398.2,92.3z"/>
					<path id="XMLID_910_" class="st22" d="M405,91.9l-0.2,7.7l-4.3-1.2l4-6.5C404.7,91.8,404.8,91.8,405,91.9z"/>
				</g>
			</g>
			<path class="st4" d="M392.2,134.4c0.3-8,1-15,3.9-18.7c3-3.7,4.6-4.4,11.6-4.3l0,0.5c-0.8,0.1-1.5,0.5-2,1.2
				c-1.3,1.9-3.9,6.3-5.4,12c-2,7.7-2.4,25-2.5,34.3c-0.1,9.3,0,16.8,0,16.8s-4.7-1.1-6.2-3.5C391.6,172.6,391.9,142.4,392.2,134.4z
				"/>
			<path class="st10" d="M392.2,134.4c0.3-8,1-15,3.9-18.7c3-3.7,4.6-4.4,11.6-4.3l0,0.5c-0.8,0.1-1.5,0.5-2,1.2
				c-1.3,1.9-3.9,6.3-5.4,12c-2,7.7-2.4,25-2.5,34.3c-0.1,9.3,0,16.8,0,16.8s-4.7-1.1-6.2-3.5C391.6,172.6,391.9,142.4,392.2,134.4z
				"/>
			<path class="st4" d="M416.5,121.8c1-4.2,3.1-7,4-9.2l8.8,1.2c3.2,1.5,7.4,5.1,7.1,8.6l-2.3,26.1l0.6,24.7c-5,7.8-20,6.4-20,6.4
				s-0.4-11.1,0.1-32.5C415.1,134.9,415.2,127.2,416.5,121.8z"/>
			<path class="st10" d="M416.5,121.8c1-4.2,3.1-7,4-9.2l8.8,1.2c3.2,1.5,7.4,5.1,7.1,8.6l-2.3,26.1l0.6,24.7c-5,7.8-20,6.4-20,6.4
				s-0.4-11.1,0.1-32.5C415.1,134.9,415.2,127.2,416.5,121.8z"/>
			<path class="st3" d="M416.1,123.8c0.6-2.7,0.9-7.8,1.4-8.8c0.5-1,3.1-3,3.2-4.4l0-0.9c0,0,1.1,0.1,2.2,1.1
				c0.8,0.7,3.2,2.4,3.2,2.4s-0.2,2.4-1.8,4.7c-1.4,2.1-3.4,3.4-3.8,2.9c-0.3-0.5-0.3-1.3-0.8-2.5c-0.7-1.5-0.8-2.1-1.5-0.7
				C417.7,118.9,416.1,123.8,416.1,123.8z"/>
			<path class="st3" d="M401.1,122.4c-0.7,2.3,1.2-7.9,2.4-9.7c1.2-1.8,4.3-2.5,4.3-2.5l-0.1,2.2c0,0-1,0.1-2,1.4
				C404.9,114.7,402.1,119.2,401.1,122.4z"/>
			<g>
				<path class="st4" d="M415.8,126c5.9,0.6,12.6,1.6,20,3.1l-0.1,0.7c-7.4-1.5-14.1-2.6-20.1-3.1
					C415.7,126.5,415.7,126.3,415.8,126z"/>
				<path class="st4" d="M392.8,125.9c2.2-0.3,4.7-0.5,7.4-0.6c-0.1,0.2-0.1,0.5-0.2,0.7c-2.7,0.1-5.2,0.4-7.3,0.6
					C392.8,126.4,392.8,126.1,392.8,125.9z"/>
			</g>
		</g>
		<path class="st20" d="M452.8,148.9c-9.4-23.8-11.4-31.2-18.1-34c-2.5-1.1-5.5-1.2-5.5-1.2c-1.6,3-4,14.5,3.8,22.5
			c0,0,5.7,14,8.5,20.6c-0.1,6.7,0.4,12.2-1.6,21.2c-0.2,1-1.4,2.5-2.3,3c-2.4,1.3-2.8,2.8-4.5,4.5c-1.4,1.3-2.6,1.6-2.4,2.1
			c0.3,0.6,1.3,1.5,3,1.1c0.9-0.2,2.3-1.1,3.7-1.9c0.2,0.3-2,3.8-4.3,6.4c-3.4,3.8-4.3,6.6,2.6,6.8c4.3,0.2,8.9-3.3,11.8-11.9
			c0.6-1.7,1.2-4.1,1.8-6.5c0.4-1,3.6-17.1,4.2-22C454.5,153.6,454.3,152.8,452.8,148.9z"/>
		<g>
			<path class="st4" d="M428.1,113.8c0,0,4.6-0.8,8.3,1.5c3.7,2.2,5,4.2,9.5,14.6c4.5,10.4,5.4,12.4,5.4,12.4s-2,5.9-13.9,6.6
				l-5.4-12.2c0,0-4.4-5.5-4.8-12.4C426.7,117.5,428.1,113.8,428.1,113.8z"/>
			<path class="st21" d="M428.1,113.8c0,0,4.6-0.8,8.3,1.5c3.7,2.2,5,4.2,9.5,14.6c4.5,10.4,5.4,12.4,5.4,12.4s-2,5.9-13.9,6.6
				l-5.4-12.2c0,0-4.4-5.5-4.8-12.4C426.7,117.5,428.1,113.8,428.1,113.8z"/>
		</g>
	</g>
</g>
</svg>
